# Made in Blockbench 5.1.4
mtllib blue_base_b.mtl

o cube
v 0.6875 -0.484375 0.6875
v 0.6875 -0.484375 0.3125
v 0.6875 -0.5 0.6875
v 0.6875 -0.5 0.3125
v 0.3125 -0.484375 0.6875
v 0.3125 -0.484375 0.3125
v 0.3125 -0.5 0.6875
v 0.3125 -0.5 0.3125
v 0.50625 -0.40312500000000007 0.375
v 0.50625 -0.48437500000000006 0.3125
v 0.50625 -0.484375 0.375
v 0.49375 -0.40312500000000007 0.375
v 0.49375 -0.48437500000000006 0.3125
v 0.49375 -0.484375 0.375
v 0.625 -0.40312499999999996 0.50625
v 0.6875 -0.484375 0.50625
v 0.625 -0.4843749999999999 0.50625
v 0.625 -0.40312499999999996 0.49375
v 0.6875 -0.484375 0.49375
v 0.625 -0.4843749999999999 0.49375
v 0.37499999999999994 -0.40312499999999996 0.50625
v 0.37499999999999994 -0.484375 0.50625
v 0.31249999999999994 -0.4843749999999999 0.50625
v 0.37499999999999994 -0.40312499999999996 0.49375
v 0.37499999999999994 -0.484375 0.49375
v 0.31249999999999994 -0.4843749999999999 0.49375
v 0.50625 -0.40312500000000007 0.625
v 0.50625 -0.48437500000000006 0.625
v 0.50625 -0.484375 0.6875
v 0.49375 -0.40312500000000007 0.625
v 0.49375 -0.48437500000000006 0.625
v 0.49375 -0.484375 0.6875
v 0.384375 -0.478125 0.384375
v 0.384375 -0.478125 0.365625
v 0.384375 -0.484375 0.384375
v 0.384375 -0.484375 0.365625
v 0.365625 -0.478125 0.384375
v 0.365625 -0.478125 0.365625
v 0.365625 -0.484375 0.384375
v 0.365625 -0.484375 0.365625
v 0.38125 -0.484375 0.38125
v 0.38125 -0.484375 0.36875
v 0.38125 -0.615625 0.38125
v 0.38125 -0.615625 0.36875
v 0.36875 -0.484375 0.38125
v 0.36875 -0.484375 0.36875
v 0.36875 -0.615625 0.38125
v 0.36875 -0.615625 0.36875
v 0.384375 -0.478125 0.634375
v 0.384375 -0.478125 0.615625
v 0.384375 -0.484375 0.634375
v 0.384375 -0.484375 0.615625
v 0.365625 -0.478125 0.634375
v 0.365625 -0.478125 0.615625
v 0.365625 -0.484375 0.634375
v 0.365625 -0.484375 0.615625
v 0.38125 -0.484375 0.63125
v 0.38125 -0.484375 0.61875
v 0.38125 -0.615625 0.63125
v 0.38125 -0.615625 0.61875
v 0.36875 -0.484375 0.63125
v 0.36875 -0.484375 0.61875
v 0.36875 -0.615625 0.63125
v 0.36875 -0.615625 0.61875
v 0.634375 -0.478125 0.384375
v 0.634375 -0.478125 0.365625
v 0.634375 -0.484375 0.384375
v 0.634375 -0.484375 0.365625
v 0.615625 -0.478125 0.384375
v 0.615625 -0.478125 0.365625
v 0.615625 -0.484375 0.384375
v 0.615625 -0.484375 0.365625
v 0.63125 -0.484375 0.38125
v 0.63125 -0.484375 0.36875
v 0.63125 -0.615625 0.38125
v 0.63125 -0.615625 0.36875
v 0.61875 -0.484375 0.38125
v 0.61875 -0.484375 0.36875
v 0.61875 -0.615625 0.38125
v 0.61875 -0.615625 0.36875
v 0.634375 -0.478125 0.634375
v 0.634375 -0.478125 0.615625
v 0.634375 -0.484375 0.634375
v 0.634375 -0.484375 0.615625
v 0.615625 -0.478125 0.634375
v 0.615625 -0.478125 0.615625
v 0.615625 -0.484375 0.634375
v 0.615625 -0.484375 0.615625
v 0.63125 -0.484375 0.63125
v 0.63125 -0.484375 0.61875
v 0.63125 -0.615625 0.63125
v 0.63125 -0.615625 0.61875
v 0.61875 -0.484375 0.63125
v 0.61875 -0.484375 0.61875
v 0.61875 -0.615625 0.63125
v 0.61875 -0.615625 0.61875
v 0.49687499999999996 0 0.33124999999999993
v 0.503125 0.006250000000000089 0.33124999999999993
v 0.503125 0.006250000000000089 0.31875
v 0.503125 0 0.33124999999999993
v 0.503125 0 0.31875
v 0.49687499999999996 0.006250000000000089 0.33124999999999993
v 0.49687499999999996 0.006250000000000089 0.31875
v 0.49687499999999996 0 0.31875
v 0.592723647736844 0.06195596064771325 0.45624999999999977
v 0.592723647736844 0.06195596064771325 0.3312499999999997
v 0.609375 0.02175604018215016 0.45624999999999977
v 0.609375 0.02175604018215016 0.3312499999999997
v 0.47146445909473755 0.011728760149795181 0.45624999999999977
v 0.47146445909473755 0.011728760149795181 0.3312499999999997
v 0.48811581135789356 -0.028471160315767907 0.45624999999999977
v 0.48811581135789356 -0.028471160315767907 0.3312499999999997
v 0.609375 -0.20925604018215016 0.45624999999999977
v 0.609375 -0.20925604018215016 0.3312499999999997
v 0.592723647736844 -0.24945596064771325 0.45624999999999977
v 0.592723647736844 -0.24945596064771325 0.3312499999999997
v 0.5285355409052624 -0.17577123985020482 0.45624999999999977
v 0.5285355409052624 -0.17577123985020482 0.3312499999999997
v 0.5118841886421065 -0.2159711603157679 0.45624999999999977
v 0.5118841886421065 -0.2159711603157679 0.3312499999999997
v 0.4714644590947376 -0.17577123985020476 0.45624999999999977
v 0.4714644590947376 -0.17577123985020476 0.3312499999999997
v 0.4881158113578936 -0.2159711603157679 0.45624999999999977
v 0.4881158113578936 -0.2159711603157679 0.3312499999999997
v 0.390625 -0.20925604018215016 0.45624999999999977
v 0.390625 -0.20925604018215016 0.3312499999999997
v 0.407276352263156 -0.24945596064771325 0.45624999999999977
v 0.407276352263156 -0.24945596064771325 0.3312499999999997
v 0.609375 0.021993959817849906 0.45624999999999977
v 0.609375 0.021993959817849906 0.3312499999999997
v 0.609375 -0.20925604018215005 0.45624999999999977
v 0.609375 -0.20925604018215005 0.3312499999999997
v 0.390625 0.021993959817849906 0.45624999999999977
v 0.390625 0.021993959817849906 0.3312499999999997
v 0.390625 -0.20925604018215005 0.45624999999999977
v 0.390625 -0.20925604018215005 0.3312499999999997
v 0.5285355409052623 0.011728760149795181 0.45624999999999977
v 0.5285355409052623 0.011728760149795181 0.3312499999999997
v 0.5118841886421064 -0.028471160315767907 0.45624999999999977
v 0.5118841886421064 -0.028471160315767907 0.3312499999999997
v 0.407276352263156 0.06195596064771325 0.45624999999999977
v 0.407276352263156 0.06195596064771325 0.3312499999999997
v 0.390625 0.02175604018215016 0.45624999999999977
v 0.390625 0.02175604018215016 0.3312499999999997
v 0.5927236477368439 0.06195596064771336 0.45624999999999977
v 0.5927236477368439 0.06195596064771336 0.3312499999999997
v 0.5043353000885255 -0.02643238700060513 0.45624999999999977
v 0.5043353000885255 -0.02643238700060513 0.3312499999999997
v 0.5619559606477134 0.09272364773684394 0.45624999999999977
v 0.5619559606477134 0.09272364773684394 0.3312499999999997
v 0.47356761299939487 0.004335300088525562 0.45624999999999977
v 0.47356761299939487 0.004335300088525562 0.3312499999999997
v 0.4380440393522867 0.09272364773684394 0.45624999999999977
v 0.4380440393522867 0.09272364773684394 0.3312499999999997
v 0.530851804383021 -0.00008411729389046219 0.45624999999999977
v 0.530851804383021 -0.00008411729389046219 0.3312499999999997
v 0.40727635226315606 0.06195596064771336 0.45624999999999977
v 0.40727635226315606 0.06195596064771336 0.3312499999999997
v 0.5000841172938905 -0.030851804383021042 0.45624999999999977
v 0.5000841172938905 -0.030851804383021042 0.3312499999999997
v 0.530851804383021 -0.1875841172938904 0.45624999999999977
v 0.530851804383021 -0.1875841172938904 0.3312499999999997
v 0.5927236477368439 -0.2494559606477133 0.45624999999999977
v 0.5927236477368439 -0.2494559606477133 0.3312499999999997
v 0.5000841172938904 -0.21835180438302104 0.45624999999999977
v 0.5000841172938904 -0.21835180438302104 0.3312499999999997
v 0.5619559606477134 -0.28022364773684394 0.45624999999999977
v 0.5619559606477134 -0.28022364773684394 0.3312499999999997
v 0.47824395981784984 0.109375 0.45624999999999977
v 0.47824395981784984 0.109375 0.3312499999999997
v 0.526079388863486 -0.00610994156391087 0.45624999999999977
v 0.526079388863486 -0.00610994156391087 0.3312499999999997
v 0.43804403935228675 0.09272364773684405 0.45624999999999977
v 0.43804403935228675 0.09272364773684405 0.3312499999999997
v 0.48587946839792295 -0.02276129382706682 0.45624999999999977
v 0.48587946839792295 -0.02276129382706682 0.3312499999999997
v 0.526079388863486 -0.19360994156391087 0.45624999999999977
v 0.526079388863486 -0.19360994156391087 0.3312499999999997
v 0.5619559606477132 -0.280223647736844 0.45624999999999977
v 0.5619559606477132 -0.280223647736844 0.3312499999999997
v 0.48587946839792295 -0.21026129382706682 0.45624999999999977
v 0.48587946839792295 -0.21026129382706682 0.3312499999999997
v 0.5217560401821502 -0.296875 0.45624999999999977
v 0.5217560401821502 -0.296875 0.3312499999999997
v 0.52175604018215 0.109375 0.45624999999999977
v 0.52175604018215 0.109375 0.3312499999999997
v 0.52175604018215 -0.0031250000000000444 0.45624999999999977
v 0.52175604018215 -0.0031250000000000444 0.3312499999999997
v 0.47824395981784995 0.109375 0.45624999999999977
v 0.47824395981784995 0.109375 0.3312499999999997
v 0.47824395981784995 -0.0031250000000000444 0.45624999999999977
v 0.47824395981784995 -0.0031250000000000444 0.3312499999999997
v 0.52175604018215 -0.19062500000000004 0.45624999999999977
v 0.52175604018215 -0.19062500000000004 0.3312499999999997
v 0.52175604018215 -0.296875 0.45624999999999977
v 0.52175604018215 -0.296875 0.3312499999999997
v 0.47824395981784995 -0.19062500000000004 0.45624999999999977
v 0.47824395981784995 -0.19062500000000004 0.3312499999999997
v 0.47824395981784995 -0.296875 0.45624999999999977
v 0.47824395981784995 -0.296875 0.3312499999999997
v 0.5619559606477132 0.09272364773684405 0.45624999999999977
v 0.5619559606477132 0.09272364773684405 0.3312499999999997
v 0.514120531602077 -0.02276129382706682 0.45624999999999977
v 0.514120531602077 -0.02276129382706682 0.3312499999999997
v 0.5217560401821502 0.109375 0.45624999999999977
v 0.5217560401821502 0.109375 0.3312499999999997
v 0.4739206111365139 -0.00610994156391087 0.45624999999999977
v 0.4739206111365139 -0.00610994156391087 0.3312499999999997
v 0.514120531602077 -0.21026129382706682 0.45624999999999977
v 0.514120531602077 -0.21026129382706682 0.3312499999999997
v 0.47824395981784984 -0.296875 0.45624999999999977
v 0.47824395981784984 -0.296875 0.3312499999999997
v 0.4739206111365139 -0.19360994156391087 0.45624999999999977
v 0.4739206111365139 -0.19360994156391087 0.3312499999999997
v 0.43804403935228675 -0.280223647736844 0.45624999999999977
v 0.43804403935228675 -0.280223647736844 0.3312499999999997
v 0.5043353000885255 -0.21393238700060513 0.45624999999999977
v 0.5043353000885255 -0.21393238700060513 0.3312499999999997
v 0.4380440393522867 -0.28022364773684394 0.45624999999999977
v 0.4380440393522867 -0.28022364773684394 0.3312499999999997
v 0.47356761299939487 -0.1831646999114745 0.45624999999999977
v 0.47356761299939487 -0.1831646999114745 0.3312499999999997
v 0.40727635226315606 -0.2494559606477133 0.45624999999999977
v 0.40727635226315606 -0.2494559606477133 0.3312499999999997
v 0.6059698831278217 0.07080681216881513 0.3374999999999999
v 0.6059698831278217 0.07080681216881513 0.32499999999999996
v 0.625 0.024864045922457167 0.3374999999999999
v 0.625 0.024864045922457167 0.32499999999999996
v 0.4962591886421065 0.02536315457546079 0.3374999999999999
v 0.4962591886421065 0.02536315457546079 0.32499999999999996
v 0.5152893055142848 -0.02057961167089717 0.3374999999999999
v 0.5152893055142848 -0.02057961167089717 0.32499999999999996
v 0.4962591886421064 -0.16213684542453932 0.3374999999999999
v 0.4962591886421064 -0.16213684542453932 0.32499999999999996
v 0.5152893055142846 -0.20807961167089717 0.3374999999999999
v 0.5152893055142846 -0.20807961167089717 0.32499999999999996
v 0.375 -0.21236404592245733 0.3374999999999999
v 0.375 -0.21236404592245733 0.32499999999999996
v 0.3940301168721783 -0.25830681216881524 0.3374999999999999
v 0.3940301168721783 -0.25830681216881524 0.32499999999999996
v 0.625 0.025135954077542766 0.3374999999999999
v 0.625 0.025135954077542766 0.32499999999999996
v 0.625 -0.21236404592245728 0.3374999999999999
v 0.625 -0.21236404592245728 0.32499999999999996
v 0.375 0.025135954077542766 0.3374999999999999
v 0.375 0.025135954077542766 0.32499999999999996
v 0.375 -0.21236404592245728 0.3374999999999999
v 0.375 -0.21236404592245728 0.32499999999999996
v 0.5708068121688151 0.10596988312782174 0.3374999999999999
v 0.5708068121688151 0.10596988312782174 0.32499999999999996
v 0.5229713831231789 -0.00951505843608913 0.3374999999999999
v 0.5229713831231789 -0.00951505843608913 0.32499999999999996
v 0.5248640459224572 0.125 0.3374999999999999
v 0.5248640459224572 0.125 0.32499999999999996
v 0.477028616876821 0.00951505843608913 0.3374999999999999
v 0.477028616876821 0.00951505843608913 0.32499999999999996
v 0.42919318783118476 0.10596988312782163 0.3374999999999999
v 0.42919318783118476 0.10596988312782163 0.32499999999999996
v 0.5087427007146714 0.026420370244334968 0.3374999999999999
v 0.5087427007146714 0.026420370244334968 0.32499999999999996
v 0.39403011687217826 0.07080681216881513 0.3374999999999999
v 0.39403011687217826 0.07080681216881513 0.32499999999999996
v 0.4735796297556649 -0.00874270071467148 0.3374999999999999
v 0.4735796297556649 -0.00874270071467148 0.32499999999999996
v 0.625 -0.21236404592245733 0.3374999999999999
v 0.625 -0.21236404592245733 0.32499999999999996
v 0.6059698831278217 -0.25830681216881524 0.3374999999999999
v 0.6059698831278217 -0.25830681216881524 0.32499999999999996
v 0.5037408113578935 -0.16213684542453927 0.3374999999999999
v 0.5037408113578935 -0.16213684542453927 0.32499999999999996
v 0.48471069448571524 -0.20807961167089717 0.3374999999999999
v 0.48471069448571524 -0.20807961167089717 0.32499999999999996
v 0.5037408113578936 0.025363154575460678 0.3374999999999999
v 0.5037408113578936 0.025363154575460678 0.32499999999999996
v 0.4847106944857153 -0.02057961167089717 0.3374999999999999
v 0.4847106944857153 -0.02057961167089717 0.32499999999999996
v 0.39403011687217826 0.07080681216881513 0.3374999999999999
v 0.39403011687217826 0.07080681216881513 0.32499999999999996
v 0.375 0.024864045922457167 0.3374999999999999
v 0.375 0.024864045922457167 0.32499999999999996
v 0.5087427007146714 -0.16107962975566498 0.3374999999999999
v 0.5087427007146714 -0.16107962975566498 0.32499999999999996
v 0.6059698831278216 -0.25830681216881524 0.3374999999999999
v 0.6059698831278216 -0.25830681216881524 0.32499999999999996
v 0.4735796297556649 -0.19624270071467148 0.3374999999999999
v 0.4735796297556649 -0.19624270071467148 0.32499999999999996
v 0.5708068121688152 -0.29346988312782174 0.3374999999999999
v 0.5708068121688152 -0.29346988312782174 0.32499999999999996
v 0.47513595407754267 0.125 0.3374999999999999
v 0.47513595407754267 0.125 0.32499999999999996
v 0.5205796116708971 0.015289305514284757 0.3374999999999999
v 0.5205796116708971 0.015289305514284757 0.32499999999999996
v 0.42919318783118476 0.10596988312782174 0.3374999999999999
v 0.42919318783118476 0.10596988312782174 0.32499999999999996
v 0.47463684542453916 -0.0037408113578935587 0.3374999999999999
v 0.47463684542453916 -0.0037408113578935587 0.32499999999999996
v 0.5205796116708971 -0.17221069448571535 0.3374999999999999
v 0.5205796116708971 -0.17221069448571535 0.32499999999999996
v 0.5708068121688151 -0.29346988312782174 0.3374999999999999
v 0.5708068121688151 -0.29346988312782174 0.32499999999999996
v 0.4746368454245392 -0.19124081135789367 0.3374999999999999
v 0.4746368454245392 -0.19124081135789367 0.32499999999999996
v 0.5248640459224572 -0.3125 0.3374999999999999
v 0.5248640459224572 -0.3125 0.32499999999999996
v 0.5248640459224572 0.125 0.3374999999999999
v 0.5248640459224572 0.125 0.32499999999999996
v 0.5248640459224572 0.006250000000000089 0.3374999999999999
v 0.5248640459224572 0.006250000000000089 0.32499999999999996
v 0.4751359540775427 0.125 0.3374999999999999
v 0.4751359540775427 0.125 0.32499999999999996
v 0.4751359540775427 0.006250000000000089 0.3374999999999999
v 0.4751359540775427 0.006250000000000089 0.32499999999999996
v 0.5248640459224572 -0.18125000000000002 0.3374999999999999
v 0.5248640459224572 -0.18125000000000002 0.32499999999999996
v 0.5248640459224572 -0.3125 0.3374999999999999
v 0.5248640459224572 -0.3125 0.32499999999999996
v 0.4751359540775427 -0.18125000000000002 0.3374999999999999
v 0.4751359540775427 -0.18125000000000002 0.32499999999999996
v 0.4751359540775427 -0.3125 0.3374999999999999
v 0.4751359540775427 -0.3125 0.32499999999999996
v 0.5229713831231789 -0.19701505843608913 0.3374999999999999
v 0.5229713831231789 -0.19701505843608913 0.32499999999999996
v 0.47513595407754267 -0.3125 0.3374999999999999
v 0.47513595407754267 -0.3125 0.32499999999999996
v 0.477028616876821 -0.17798494156391081 0.3374999999999999
v 0.477028616876821 -0.17798494156391081 0.32499999999999996
v 0.42919318783118476 -0.2934698831278217 0.3374999999999999
v 0.42919318783118476 -0.2934698831278217 0.32499999999999996
v 0.6059698831278216 0.07080681216881524 0.3374999999999999
v 0.6059698831278216 0.07080681216881524 0.32499999999999996
v 0.5175815354795031 -0.017581535479503196 0.3374999999999999
v 0.5175815354795031 -0.017581535479503196 0.32499999999999996
v 0.5708068121688152 0.10596988312782174 0.3374999999999999
v 0.5708068121688152 0.10596988312782174 0.32499999999999996
v 0.48241846452049675 0.017581535479503252 0.3374999999999999
v 0.48241846452049675 0.017581535479503252 0.32499999999999996
v 0.5175815354795031 -0.2050815354795032 0.3374999999999999
v 0.5175815354795031 -0.2050815354795032 0.32499999999999996
v 0.42919318783118476 -0.29346988312782163 0.3374999999999999
v 0.42919318783118476 -0.29346988312782163 0.32499999999999996
v 0.48241846452049675 -0.16991846452049675 0.3374999999999999
v 0.48241846452049675 -0.16991846452049675 0.32499999999999996
v 0.39403011687217826 -0.2583068121688152 0.3374999999999999
v 0.39403011687217826 -0.2583068121688152 0.32499999999999996
v 0.503125 -0.24375000000000002 0.33124999999999993
v 0.503125 -0.24375000000000002 0.31875
v 0.503125 -0.25 0.33124999999999993
v 0.503125 -0.25 0.31875
v 0.49687499999999996 -0.24375000000000002 0.33124999999999993
v 0.49687499999999996 -0.24375000000000002 0.31875
v 0.49687499999999996 -0.25 0.33124999999999993
v 0.49687499999999996 -0.25 0.31875
vt 0.4375 0.80859375
vt 0.4375 0.8125
vt 0.34375 0.8125
vt 0.34375 0.80859375
vt 0.4375 0.77734375
vt 0.4375 0.78125
vt 0.34375 0.78125
vt 0.34375 0.77734375
vt 0.09375 0.90625
vt 0.09375 1
vt 0 1
vt 0 0.90625
vt 0.09375 0.796875
vt 0.09375 0.890625
vt 0 0.890625
vt 0 0.796875
vt 0.4375 0.74609375
vt 0.4375 0.75
vt 0.34375 0.75
vt 0.34375 0.74609375
vt 0.4375 0.71484375
vt 0.4375 0.71875
vt 0.34375 0.71875
vt 0.34375 0.71484375
vt 0.296875 0.515625
vt 0.296875 0.49531250000000004
vt 0.3125 0.49531250000000004
vt 0.34375 0.515625
vt 0.328125 0.49531250000000004
vt 0.34375 0.49531250000000004
vt 0.55078125 0.421875
vt 0.546875 0.421875
vt 0.546875 0.39453125
vt 0.55078125 0.39453125
vt 0.51953125 0.640625
vt 0.51953125 0.65625
vt 0.515625 0.65625
vt 0.515625 0.640625
vt 0.06640625 0.38671875
vt 0.06640625 0.40625
vt 0.0625 0.40625
vt 0.0625 0.38671875
vt 0.390625 0.515625
vt 0.390625 0.49531250000000004
vt 0.40625 0.49531250000000004
vt 0.5 0.59375
vt 0.484375 0.5734375
vt 0.5 0.5734375
vt 0.00390625 0.40625
vt 0 0.40625
vt 0 0.37890625
vt 0.00390625 0.37890625
vt 0.19140625 0.390625
vt 0.19140625 0.40625
vt 0.1875 0.40625
vt 0.1875 0.390625
vt 0.09765625 0.38671875
vt 0.09765625 0.40625
vt 0.09375 0.40625
vt 0.09375 0.38671875
vt 0.5 0.546875
vt 0.484375 0.5265625
vt 0.5 0.5265625
vt 0.5 0.96875
vt 0.5 0.9484375
vt 0.515625 0.9484375
vt 0.59765625 0.90625
vt 0.59375 0.90625
vt 0.59375 0.88671875
vt 0.59765625 0.88671875
vt 0.59765625 0.796875
vt 0.59765625 0.8125
vt 0.59375 0.8125
vt 0.59375 0.796875
vt 0.58203125 0.39453125
vt 0.58203125 0.421875
vt 0.578125 0.421875
vt 0.578125 0.39453125
vt 0.078125 0.5
vt 0.0625 0.47968750000000004
vt 0.078125 0.47968750000000004
vt 0.09375 0.5
vt 0.09375 0.47968750000000004
vt 0.109375 0.47968750000000004
vt 0.12890625 0.40625
vt 0.125 0.40625
vt 0.125 0.38671875
vt 0.12890625 0.38671875
vt 0.56640625 0.9375
vt 0.56640625 0.953125
vt 0.5625 0.953125
vt 0.5625 0.9375
vt 0.51953125 0.39453125
vt 0.51953125 0.421875
vt 0.515625 0.421875
vt 0.515625 0.39453125
vt 0.28515625 0.37109375
vt 0.28515625 0.375
vt 0.28125 0.375
vt 0.28125 0.37109375
vt 0.62890625 0.71484375
vt 0.62890625 0.71875
vt 0.625 0.71875
vt 0.625 0.71484375
vt 0.31640625 0.37109375
vt 0.31640625 0.375
vt 0.3125 0.375
vt 0.3125 0.37109375
vt 0.34765625 0.37109375
vt 0.34765625 0.375
vt 0.34375 0.375
vt 0.34375 0.37109375
vt 0.37890625 0.37109375
vt 0.37890625 0.375
vt 0.375 0.375
vt 0.375 0.37109375
vt 0.41015625 0.37109375
vt 0.41015625 0.375
vt 0.40625 0.375
vt 0.40625 0.37109375
vt 0.03515625 0.4375
vt 0.03515625 0.46875
vt 0.03125 0.46875
vt 0.03125 0.4375
vt 0.16015625 0.4375
vt 0.16015625 0.46875
vt 0.15625 0.46875
vt 0.15625 0.4375
vt 0.44140625 0.37109375
vt 0.44140625 0.375
vt 0.4375 0.375
vt 0.4375 0.37109375
vt 0.47265625 0.37109375
vt 0.47265625 0.375
vt 0.46875 0.375
vt 0.46875 0.37109375
vt 0.53515625 0.78125
vt 0.53515625 0.8125
vt 0.53125 0.8125
vt 0.53125 0.78125
vt 0.26953125 0.4375
vt 0.26953125 0.46875
vt 0.265625 0.46875
vt 0.265625 0.4375
vt 0.62890625 0.52734375
vt 0.62890625 0.53125
vt 0.625 0.53125
vt 0.625 0.52734375
vt 0.50390625 0.37109375
vt 0.50390625 0.375
vt 0.5 0.375
vt 0.5 0.37109375
vt 0.62890625 0.49609375
vt 0.62890625 0.5
vt 0.625 0.5
vt 0.625 0.49609375
vt 0.53515625 0.37109375
vt 0.53515625 0.375
vt 0.53125 0.375
vt 0.53125 0.37109375
vt 0.62890625 0.46484375
vt 0.62890625 0.46875
vt 0.625 0.46875
vt 0.625 0.46484375
vt 0.56640625 0.37109375
vt 0.56640625 0.375
vt 0.5625 0.375
vt 0.5625 0.37109375
vt 0.30078125 0.4375
vt 0.30078125 0.46875
vt 0.296875 0.46875
vt 0.296875 0.4375
vt 0.53515625 0.671875
vt 0.53515625 0.703125
vt 0.53125 0.703125
vt 0.53125 0.671875
vt 0.59765625 0.37109375
vt 0.59765625 0.375
vt 0.59375 0.375
vt 0.59375 0.37109375
vt 0.62890625 0.37109375
vt 0.62890625 0.375
vt 0.625 0.375
vt 0.625 0.37109375
vt 0.33203125 0.4375
vt 0.33203125 0.46875
vt 0.328125 0.46875
vt 0.328125 0.4375
vt 0.39453125 0.4375
vt 0.39453125 0.46875
vt 0.390625 0.46875
vt 0.390625 0.4375
vt 0.00390625 0.35546875
vt 0.00390625 0.359375
vt 0 0.359375
vt 0 0.35546875
vt 0.06640625 0.35546875
vt 0.06640625 0.359375
vt 0.0625 0.359375
vt 0.0625 0.35546875
vt 0.09765625 0.35546875
vt 0.09765625 0.359375
vt 0.09375 0.359375
vt 0.09375 0.35546875
vt 0.12890625 0.35546875
vt 0.12890625 0.359375
vt 0.125 0.359375
vt 0.125 0.35546875
vt 0.64453125 0.87109375
vt 0.64453125 0.875
vt 0.640625 0.875
vt 0.640625 0.87109375
vt 0.64453125 0.79296875
vt 0.64453125 0.796875
vt 0.640625 0.796875
vt 0.640625 0.79296875
vt 0.45703125 0.4375
vt 0.45703125 0.46875
vt 0.453125 0.46875
vt 0.453125 0.4375
vt 0.53515625 0.484375
vt 0.53515625 0.515625
vt 0.53125 0.515625
vt 0.53125 0.484375
vt 0.64453125 0.76171875
vt 0.64453125 0.765625
vt 0.640625 0.765625
vt 0.640625 0.76171875
vt 0.64453125 0.68359375
vt 0.64453125 0.6875
vt 0.640625 0.6875
vt 0.640625 0.68359375
vt 0.53515625 0.4375
vt 0.53515625 0.46875
vt 0.53125 0.46875
vt 0.53125 0.4375
vt 0.06640625 0.421875
vt 0.06640625 0.453125
vt 0.0625 0.453125
vt 0.0625 0.421875
vt 0.64453125 0.65234375
vt 0.64453125 0.65625
vt 0.640625 0.65625
vt 0.640625 0.65234375
vt 0.64453125 0.62109375
vt 0.64453125 0.625
vt 0.640625 0.625
vt 0.640625 0.62109375
vt 0.64453125 0.58984375
vt 0.64453125 0.59375
vt 0.640625 0.59375
vt 0.640625 0.58984375
vt 0.64453125 0.55859375
vt 0.64453125 0.5625
vt 0.640625 0.5625
vt 0.640625 0.55859375
vt 0.64453125 0.43359375
vt 0.64453125 0.4375
vt 0.640625 0.4375
vt 0.640625 0.43359375
vt 0.64453125 0.40234375
vt 0.64453125 0.40625
vt 0.640625 0.40625
vt 0.640625 0.40234375
vt 0.09765625 0.421875
vt 0.09765625 0.453125
vt 0.09375 0.453125
vt 0.09375 0.421875
vt 0.12890625 0.421875
vt 0.12890625 0.453125
vt 0.125 0.453125
vt 0.125 0.421875
vt 0.66015625 0.99609375
vt 0.66015625 1
vt 0.65625 1
vt 0.65625 0.99609375
vt 0.03515625 0.33984375
vt 0.03515625 0.34375
vt 0.03125 0.34375
vt 0.03125 0.33984375
vt 0.55078125 0.828125
vt 0.55078125 0.859375
vt 0.546875 0.859375
vt 0.546875 0.828125
vt 0.19140625 0.421875
vt 0.19140625 0.453125
vt 0.1875 0.453125
vt 0.1875 0.421875
vt 0.66015625 0.96484375
vt 0.66015625 0.96875
vt 0.65625 0.96875
vt 0.65625 0.96484375
vt 0.66015625 0.93359375
vt 0.66015625 0.9375
vt 0.65625 0.9375
vt 0.65625 0.93359375
vt 0.66015625 0.90234375
vt 0.66015625 0.90625
vt 0.65625 0.90625
vt 0.65625 0.90234375
vt 0.16015625 0.33984375
vt 0.16015625 0.34375
vt 0.15625 0.34375
vt 0.15625 0.33984375
vt 0.66015625 0.83984375
vt 0.66015625 0.84375
vt 0.65625 0.84375
vt 0.65625 0.83984375
vt 0.19140625 0.33984375
vt 0.19140625 0.34375
vt 0.1875 0.34375
vt 0.1875 0.33984375
vt 0.25 0.55078125
vt 0.25 0.5625
vt 0.21875 0.5625
vt 0.21875 0.55078125
vt 0.484375 0.95703125
vt 0.484375 0.96875
vt 0.453125 0.96875
vt 0.453125 0.95703125
vt 0.234375 0.765625
vt 0.203125 0.765625
vt 0.203125 0.734375
vt 0.234375 0.734375
vt 0.28125 0.78125
vt 0.25 0.78125
vt 0.25 0.75
vt 0.28125 0.75
vt 0.375 0.67578125
vt 0.375 0.6875
vt 0.34375 0.6875
vt 0.34375 0.67578125
vt 0.34375 0.625
vt 0.35546875 0.625
vt 0.35546875 0.65625
vt 0.34375 0.65625
vt 0.46875 0.67578125
vt 0.46875 0.6875
vt 0.4375 0.6875
vt 0.4375 0.67578125
vt 0.46875 0.58203125
vt 0.46875 0.59375
vt 0.4375 0.59375
vt 0.4375 0.58203125
vt 0.234375 0.6640625
vt 0.265625 0.6640625
vt 0.265625 0.6875
vt 0.234375 0.6875
vt 0.046875 0.6484375
vt 0.078125 0.6484375
vt 0.078125 0.671875
vt 0.046875 0.671875
vt 0.125 0.4765625
vt 0.13671875 0.4765625
vt 0.13671875 0.5
vt 0.125 0.5
vt 0.5078125 0.67578125
vt 0.5078125 0.6875
vt 0.484375 0.6875
vt 0.484375 0.67578125
vt 0.0625 0.53515625
vt 0.0625 0.546875
vt 0.03125 0.546875
vt 0.03125 0.53515625
vt 0.484375 0.92578125
vt 0.484375 0.9375
vt 0.453125 0.9375
vt 0.453125 0.92578125
vt 0.359375 0.953125
vt 0.328125 0.953125
vt 0.328125 0.9296875
vt 0.359375 0.9296875
vt 0.34375 1
vt 0.3125 1
vt 0.3125 0.9765625
vt 0.34375 0.9765625
vt 0.5234375 0.83203125
vt 0.5234375 0.84375
vt 0.5 0.84375
vt 0.5 0.83203125
vt 0.5 0.7890625
vt 0.51171875 0.7890625
vt 0.51171875 0.8125
vt 0.5 0.8125
vt 0.21875 0.86328125
vt 0.21875 0.921875
vt 0.1875 0.921875
vt 0.1875 0.86328125
vt 0.21875 0.78515625
vt 0.21875 0.84375
vt 0.1875 0.84375
vt 0.1875 0.78515625
vt 0.0546875 0.75
vt 0.0546875 0.78125
vt 0 0.78125
vt 0 0.75
vt 0.1328125 0.734375
vt 0.1328125 0.765625
vt 0.078125 0.765625
vt 0.078125 0.734375
vt 0.1640625 0.78515625
vt 0.1640625 0.84375
vt 0.109375 0.84375
vt 0.109375 0.78515625
vt 0.2421875 0.94140625
vt 0.2421875 1
vt 0.1875 1
vt 0.1875 0.94140625
vt 0.46875 0.55078125
vt 0.46875 0.5625
vt 0.4375 0.5625
vt 0.4375 0.55078125
vt 0.484375 0.83203125
vt 0.484375 0.84375
vt 0.453125 0.84375
vt 0.453125 0.83203125
vt 0.265625 0.96875
vt 0.296875 0.96875
vt 0.296875 1
vt 0.265625 1
vt 0 0.703125
vt 0.03125 0.703125
vt 0.03125 0.734375
vt 0 0.734375
vt 0 0.609375
vt 0.01171875 0.609375
vt 0.01171875 0.640625
vt 0 0.640625
vt 0.390625 0.98828125
vt 0.390625 1
vt 0.359375 1
vt 0.359375 0.98828125
vt 0.28125 0.703125
vt 0.28125 0.734375
vt 0.25 0.734375
vt 0.25 0.703125
vt 0.125 0.6875
vt 0.125 0.71875
vt 0.09375 0.71875
vt 0.09375 0.6875
vt 0.125 0.51953125
vt 0.15625 0.51953125
vt 0.15625 0.53125
vt 0.125 0.53125
vt 0.390625 0.53515625
vt 0.421875 0.53515625
vt 0.421875 0.546875
vt 0.390625 0.546875
vt 0.21875 0.62890625
vt 0.25 0.62890625
vt 0.25 0.640625
vt 0.21875 0.640625
vt 0.27734375 0.609375
vt 0.27734375 0.640625
vt 0.265625 0.640625
vt 0.265625 0.609375
vt 0.078125 0.6875
vt 0.078125 0.71875
vt 0.046875 0.71875
vt 0.046875 0.6875
vt 0.3125 0.921875
vt 0.3125 0.953125
vt 0.28125 0.953125
vt 0.28125 0.921875
vt 0.5 0.65625
vt 0.46875 0.65625
vt 0.46875 0.64453125
vt 0.5 0.64453125
vt 0.5 0.875
vt 0.46875 0.875
vt 0.46875 0.86328125
vt 0.5 0.86328125
vt 0.30859375 0.609375
vt 0.30859375 0.640625
vt 0.296875 0.640625
vt 0.296875 0.609375
vt 0.03125 0.61328125
vt 0.0625 0.61328125
vt 0.0625 0.625
vt 0.03125 0.625
vt 0.125 0.6484375
vt 0.125 0.671875
vt 0.09375 0.671875
vt 0.09375 0.6484375
vt 0.359375 0.8359375
vt 0.359375 0.859375
vt 0.328125 0.859375
vt 0.328125 0.8359375
vt 0.46875 0.53125
vt 0.4375 0.53125
vt 0.4375 0.51953125
vt 0.46875 0.51953125
vt 0.109375 0.53125
vt 0.078125 0.53125
vt 0.078125 0.51953125
vt 0.109375 0.51953125
vt 0.21484375 0.4765625
vt 0.21484375 0.5
vt 0.203125 0.5
vt 0.203125 0.4765625
vt 0.5 0.75390625
vt 0.5234375 0.75390625
vt 0.5234375 0.765625
vt 0.5 0.765625
vt 0.265625 0.890625
vt 0.265625 0.921875
vt 0.234375 0.921875
vt 0.234375 0.890625
vt 0.265625 0.84375
vt 0.265625 0.875
vt 0.234375 0.875
vt 0.234375 0.84375
vt 0.484375 0.78125
vt 0.453125 0.78125
vt 0.453125 0.76953125
vt 0.484375 0.76953125
vt 0.484375 0.75
vt 0.453125 0.75
vt 0.453125 0.73828125
vt 0.484375 0.73828125
vt 0.38671875 0.9375
vt 0.38671875 0.96875
vt 0.375 0.96875
vt 0.375 0.9375
vt 0.078125 0.61328125
vt 0.109375 0.61328125
vt 0.109375 0.625
vt 0.078125 0.625
vt 0.03125 0.6640625
vt 0.03125 0.6875
vt 0 0.6875
vt 0 0.6640625
vt 0.328125 0.7421875
vt 0.328125 0.765625
vt 0.296875 0.765625
vt 0.296875 0.7421875
vt 0.296875 0.546875
vt 0.265625 0.546875
vt 0.265625 0.53515625
vt 0.296875 0.53515625
vt 0.34375 0.546875
vt 0.3125 0.546875
vt 0.3125 0.53515625
vt 0.34375 0.53515625
vt 0.24609375 0.4765625
vt 0.24609375 0.5
vt 0.234375 0.5
vt 0.234375 0.4765625
vt 0.5 0.72265625
vt 0.5234375 0.72265625
vt 0.5234375 0.734375
vt 0.5 0.734375
vt 0.3125 0.87890625
vt 0.3125 0.90625
vt 0.28125 0.90625
vt 0.28125 0.87890625
vt 0.171875 0.69140625
vt 0.171875 0.71875
vt 0.140625 0.71875
vt 0.140625 0.69140625
vt 0.38671875 0.890625
vt 0.38671875 0.921875
vt 0.375 0.921875
vt 0.375 0.890625
vt 0.13671875 0.59375
vt 0.13671875 0.625
vt 0.125 0.625
vt 0.125 0.59375
vt 0.37109375 0.50390625
vt 0.37109375 0.53125
vt 0.359375 0.53125
vt 0.359375 0.50390625
vt 0.01171875 0.48828125
vt 0.01171875 0.515625
vt 0 0.515625
vt 0 0.48828125
vt 0.3125 0.83203125
vt 0.3125 0.859375
vt 0.28125 0.859375
vt 0.28125 0.83203125
vt 0.21875 0.69140625
vt 0.21875 0.71875
vt 0.1875 0.71875
vt 0.1875 0.69140625
vt 0.38671875 0.84375
vt 0.38671875 0.875
vt 0.375 0.875
vt 0.375 0.84375
vt 0.16796875 0.59375
vt 0.16796875 0.625
vt 0.15625 0.625
vt 0.15625 0.59375
vt 0.04296875 0.48828125
vt 0.04296875 0.515625
vt 0.03125 0.515625
vt 0.03125 0.48828125
vt 0.18359375 0.48828125
vt 0.18359375 0.515625
vt 0.171875 0.515625
vt 0.171875 0.48828125
vt 0.1875 0.734375
vt 0.1875 0.765625
vt 0.15625 0.765625
vt 0.15625 0.734375
vt 0.265625 0.796875
vt 0.265625 0.828125
vt 0.234375 0.828125
vt 0.234375 0.796875
vt 0.453125 0.70703125
vt 0.484375 0.70703125
vt 0.484375 0.71875
vt 0.453125 0.71875
vt 0.171875 0.53515625
vt 0.203125 0.53515625
vt 0.203125 0.546875
vt 0.171875 0.546875
vt 0.375 0.64453125
vt 0.40625 0.64453125
vt 0.40625 0.65625
vt 0.375 0.65625
vt 0.38671875 0.59375
vt 0.38671875 0.625
vt 0.375 0.625
vt 0.375 0.59375
vt 0.328125 0.6953125
vt 0.328125 0.71875
vt 0.296875 0.71875
vt 0.296875 0.6953125
vt 0.328125 0.7890625
vt 0.328125 0.8125
vt 0.296875 0.8125
vt 0.296875 0.7890625
vt 0.453125 0.80078125
vt 0.484375 0.80078125
vt 0.484375 0.8125
vt 0.453125 0.8125
vt 0.453125 0.61328125
vt 0.484375 0.61328125
vt 0.484375 0.625
vt 0.453125 0.625
vt 0.5 0.61328125
vt 0.5234375 0.61328125
vt 0.5234375 0.625
vt 0.5 0.625
vt 0.43359375 0.4765625
vt 0.43359375 0.5
vt 0.421875 0.5
vt 0.421875 0.4765625
vt 0.359375 0.8828125
vt 0.359375 0.90625
vt 0.328125 0.90625
vt 0.328125 0.8828125
vt 0.171875 0.6484375
vt 0.171875 0.671875
vt 0.140625 0.671875
vt 0.140625 0.6484375
vt 0.46875 0.89453125
vt 0.5 0.89453125
vt 0.5 0.90625
vt 0.46875 0.90625
vt 0.21875 0.51953125
vt 0.25 0.51953125
vt 0.25 0.53125
vt 0.21875 0.53125
vt 0.453125 0.48828125
vt 0.4765625 0.48828125
vt 0.4765625 0.5
vt 0.453125 0.5
vt 0.51171875 0.4765625
vt 0.51171875 0.5
vt 0.5 0.5
vt 0.5 0.4765625
vt 0.59765625 0.51953125
vt 0.59765625 0.53125
vt 0.59375 0.53125
vt 0.59375 0.51953125
vt 0.48828125 0.39453125
vt 0.48828125 0.40625
vt 0.484375 0.40625
vt 0.484375 0.39453125
vt 0.58203125 0.859375
vt 0.578125 0.859375
vt 0.578125 0.828125
vt 0.58203125 0.828125
vt 0.16015625 0.421875
vt 0.15625 0.421875
vt 0.15625 0.390625
vt 0.16015625 0.390625
vt 0.21875 0.59765625
vt 0.21875 0.609375
vt 0.1875 0.609375
vt 0.1875 0.59765625
vt 0.234375 0.578125
vt 0.24609375 0.578125
vt 0.24609375 0.609375
vt 0.234375 0.609375
vt 0.61328125 0.76953125
vt 0.61328125 0.78125
vt 0.609375 0.78125
vt 0.609375 0.76953125
vt 0.61328125 0.73828125
vt 0.61328125 0.75
vt 0.609375 0.75
vt 0.609375 0.73828125
vt 0.58203125 0.765625
vt 0.578125 0.765625
vt 0.578125 0.734375
vt 0.58203125 0.734375
vt 0.58203125 0.671875
vt 0.578125 0.671875
vt 0.578125 0.640625
vt 0.58203125 0.640625
vt 0.421875 0.67578125
vt 0.421875 0.6875
vt 0.390625 0.6875
vt 0.390625 0.67578125
vt 0.328125 0.578125
vt 0.33984375 0.578125
vt 0.33984375 0.609375
vt 0.328125 0.609375
vt 0.36328125 0.42578125
vt 0.36328125 0.484375
vt 0.359375 0.484375
vt 0.359375 0.42578125
vt 0.51953125 0.53515625
vt 0.51953125 0.59375
vt 0.515625 0.59375
vt 0.515625 0.53515625
vt 0.578125 0.91796875
vt 0.578125 0.921875
vt 0.515625 0.921875
vt 0.515625 0.91796875
vt 0.578125 0.88671875
vt 0.578125 0.890625
vt 0.515625 0.890625
vt 0.515625 0.88671875
vt 0.171875 0.94140625
vt 0.171875 1
vt 0.109375 1
vt 0.109375 0.94140625
vt 0.171875 0.86328125
vt 0.171875 0.921875
vt 0.109375 0.921875
vt 0.109375 0.86328125
vt 0.55078125 0.53125
vt 0.55078125 0.5625
vt 0.546875 0.5625
vt 0.546875 0.53125
vt 0.42578125 0.421875
vt 0.42578125 0.453125
vt 0.421875 0.453125
vt 0.421875 0.421875
vt 0.609375 0.64453125
vt 0.61328125 0.64453125
vt 0.61328125 0.65625
vt 0.609375 0.65625
vt 0.609375 0.58203125
vt 0.61328125 0.58203125
vt 0.61328125 0.59375
vt 0.609375 0.59375
vt 0 0.58203125
vt 0.03125 0.58203125
vt 0.03125 0.59375
vt 0 0.59375
vt 0.41796875 0.96875
vt 0.41796875 1
vt 0.40625 1
vt 0.40625 0.96875
vt 0.59765625 0.97265625
vt 0.59765625 1
vt 0.59375 1
vt 0.59375 0.97265625
vt 0.59765625 0.92578125
vt 0.59765625 0.953125
vt 0.59375 0.953125
vt 0.59375 0.92578125
vt 0.62890625 0.828125
vt 0.625 0.828125
vt 0.625 0.81640625
vt 0.62890625 0.81640625
vt 0.22265625 0.375
vt 0.21875 0.375
vt 0.21875 0.36328125
vt 0.22265625 0.36328125
vt 0.27734375 0.48828125
vt 0.27734375 0.515625
vt 0.265625 0.515625
vt 0.265625 0.48828125
vt 0.484375 0.98828125
vt 0.51171875 0.98828125
vt 0.51171875 1
vt 0.484375 1
vt 0.59765625 0.45703125
vt 0.59765625 0.46875
vt 0.59375 0.46875
vt 0.59375 0.45703125
vt 0.61328125 0.84765625
vt 0.61328125 0.859375
vt 0.609375 0.859375
vt 0.609375 0.84765625
vt 0.25 0.390625
vt 0.25390625 0.390625
vt 0.25390625 0.421875
vt 0.25 0.421875
vt 0.28125 0.390625
vt 0.28515625 0.390625
vt 0.28515625 0.421875
vt 0.28125 0.421875
vt 0.046875 0.5625
vt 0.05859375 0.5625
vt 0.05859375 0.59375
vt 0.046875 0.59375
vt 0.4375 0.94140625
vt 0.4375 0.953125
vt 0.40625 0.953125
vt 0.40625 0.94140625
vt 0.61328125 0.67578125
vt 0.61328125 0.6875
vt 0.609375 0.6875
vt 0.609375 0.67578125
vt 0.59765625 0.48828125
vt 0.59765625 0.5
vt 0.59375 0.5
vt 0.59375 0.48828125
vt 0.3125 0.390625
vt 0.31640625 0.390625
vt 0.31640625 0.421875
vt 0.3125 0.421875
vt 0.03125 0.390625
vt 0.03515625 0.390625
vt 0.03515625 0.421875
vt 0.03125 0.421875
vt 0.078125 0.5625
vt 0.08984375 0.5625
vt 0.08984375 0.59375
vt 0.078125 0.59375
vt 0.4375 0.91015625
vt 0.4375 0.921875
vt 0.40625 0.921875
vt 0.40625 0.91015625
vt 0.00390625 0.43359375
vt 0.00390625 0.46875
vt 0 0.46875
vt 0 0.43359375
vt 0.53515625 0.96484375
vt 0.53515625 1
vt 0.53125 1
vt 0.53125 0.96484375
vt 0.19140625 0.375
vt 0.1875 0.375
vt 0.1875 0.36328125
vt 0.19140625 0.36328125
vt 0.62890625 0.96875
vt 0.625 0.96875
vt 0.625 0.95703125
vt 0.62890625 0.95703125
vt 0.19921875 0.63671875
vt 0.19921875 0.671875
vt 0.1875 0.671875
vt 0.1875 0.63671875
vt 0.28125 0.66015625
vt 0.31640625 0.66015625
vt 0.31640625 0.671875
vt 0.28125 0.671875
vt 0.56640625 0.78125
vt 0.56640625 0.8125
vt 0.5625 0.8125
vt 0.5625 0.78125
vt 0.56640625 0.96875
vt 0.56640625 1
vt 0.5625 1
vt 0.5625 0.96875
vt 0.61328125 0.5625
vt 0.609375 0.5625
vt 0.609375 0.55078125
vt 0.61328125 0.55078125
vt 0.61328125 0.4375
vt 0.609375 0.4375
vt 0.609375 0.42578125
vt 0.61328125 0.42578125
vt 0.41796875 0.859375
vt 0.41796875 0.890625
vt 0.40625 0.890625
vt 0.40625 0.859375
vt 0.40625 0.83203125
vt 0.4375 0.83203125
vt 0.4375 0.84375
vt 0.40625 0.84375
vt 0.56640625 0.4375
vt 0.56640625 0.46875
vt 0.5625 0.46875
vt 0.5625 0.4375
vt 0.48828125 0.421875
vt 0.48828125 0.453125
vt 0.484375 0.453125
vt 0.484375 0.421875
vt 0.03515625 0.375
vt 0.03125 0.375
vt 0.03125 0.36328125
vt 0.03515625 0.36328125
vt 0.61328125 0.625
vt 0.609375 0.625
vt 0.609375 0.61328125
vt 0.61328125 0.61328125
vt 0.27734375 0.5625
vt 0.27734375 0.59375
vt 0.265625 0.59375
vt 0.265625 0.5625
vt 0.40625 0.61328125
vt 0.4375 0.61328125
vt 0.4375 0.625
vt 0.40625 0.625
vt 0.22265625 0.421875
vt 0.22265625 0.453125
vt 0.21875 0.453125
vt 0.21875 0.421875
vt 0.55078125 0.734375
vt 0.55078125 0.765625
vt 0.546875 0.765625
vt 0.546875 0.734375
vt 0.23046875 0.40234375
vt 0.23046875 0.40625
vt 0.21875 0.40625
vt 0.21875 0.40234375
vt 0.60546875 0.71484375
vt 0.60546875 0.71875
vt 0.59375 0.71875
vt 0.59375 0.71484375
vt 0.30859375 0.5625
vt 0.30859375 0.59375
vt 0.296875 0.59375
vt 0.296875 0.5625
vt 0.41796875 0.5625
vt 0.41796875 0.59375
vt 0.40625 0.59375
vt 0.40625 0.5625
vt 0.55078125 0.625
vt 0.55078125 0.65625
vt 0.546875 0.65625
vt 0.546875 0.625
vt 0.55078125 0.578125
vt 0.55078125 0.609375
vt 0.546875 0.609375
vt 0.546875 0.578125
vt 0.35546875 0.40234375
vt 0.35546875 0.40625
vt 0.34375 0.40625
vt 0.34375 0.40234375
vt 0.43359375 0.40234375
vt 0.43359375 0.40625
vt 0.421875 0.40625
vt 0.421875 0.40234375
vt 0.12109375 0.546875
vt 0.12109375 0.578125
vt 0.109375 0.578125
vt 0.109375 0.546875
vt 0.15234375 0.546875
vt 0.15234375 0.578125
vt 0.140625 0.578125
vt 0.140625 0.546875
vt 0.56640625 0.6875
vt 0.56640625 0.71875
vt 0.5625 0.71875
vt 0.5625 0.6875
vt 0.56640625 0.484375
vt 0.56640625 0.515625
vt 0.5625 0.515625
vt 0.5625 0.484375
vt 0.609375 0.39453125
vt 0.61328125 0.39453125
vt 0.61328125 0.40625
vt 0.609375 0.40625
vt 0.625 0.98828125
vt 0.62890625 0.98828125
vt 0.62890625 1
vt 0.625 1
vt 0.171875 0.56640625
vt 0.203125 0.56640625
vt 0.203125 0.578125
vt 0.171875 0.578125
vt 0.37109375 0.546875
vt 0.37109375 0.578125
vt 0.359375 0.578125
vt 0.359375 0.546875
vt 0.58203125 0.546875
vt 0.58203125 0.578125
vt 0.578125 0.578125
vt 0.578125 0.546875
vt 0.39453125 0.390625
vt 0.39453125 0.421875
vt 0.390625 0.421875
vt 0.390625 0.390625
vt 0.625 0.92578125
vt 0.62890625 0.92578125
vt 0.62890625 0.9375
vt 0.625 0.9375
vt 0.625 0.89453125
vt 0.62890625 0.89453125
vt 0.62890625 0.90625
vt 0.625 0.90625
vt 0.421875 0.64453125
vt 0.453125 0.64453125
vt 0.453125 0.65625
vt 0.421875 0.65625
vt 0.01171875 0.53125
vt 0.01171875 0.5625
vt 0 0.5625
vt 0 0.53125
vt 0.58203125 0.59375
vt 0.58203125 0.625
vt 0.578125 0.625
vt 0.578125 0.59375
vt 0.45703125 0.390625
vt 0.45703125 0.421875
vt 0.453125 0.421875
vt 0.453125 0.390625
vt 0.15625 0.36328125
vt 0.16015625 0.36328125
vt 0.16015625 0.375
vt 0.15625 0.375
vt 0.25 0.36328125
vt 0.25390625 0.36328125
vt 0.25390625 0.375
vt 0.25 0.375
vt 0.4375 0.98828125
vt 0.46875 0.98828125
vt 0.46875 1
vt 0.4375 1
vt 0.44921875 0.859375
vt 0.44921875 0.890625
vt 0.4375 0.890625
vt 0.4375 0.859375
vt 0.22265625 0.33984375
vt 0.22265625 0.34375
vt 0.21875 0.34375
vt 0.21875 0.33984375
vt 0.25390625 0.33984375
vt 0.25390625 0.34375
vt 0.25 0.34375
vt 0.25 0.33984375
vt 0.66015625 0.73046875
vt 0.66015625 0.734375
vt 0.65625 0.734375
vt 0.65625 0.73046875
vt 0.28515625 0.33984375
vt 0.28515625 0.34375
vt 0.28125 0.34375
vt 0.28125 0.33984375
vt 0.31640625 0.33984375
vt 0.31640625 0.34375
vt 0.3125 0.34375
vt 0.3125 0.33984375
vt 0.34765625 0.33984375
vt 0.34765625 0.34375
vt 0.34375 0.34375
vt 0.34375 0.33984375
vn 1 0 0
vn -1 0 0
vn 0 1 0
vn 0 -1 0
vn 0 0 1
vn 0 0 -1
vn 1 0 0
vn -1 0 0
vn 0 0.6097107608496923 -0.7926239891046003
vn 0 -1 1.3322676295501878e-15
vn 0 0 1
vn 0 0 1
vn 0 0 -1
vn 0.7926239891046003 0.6097107608496923 0
vn -1.3322676295501878e-15 -1 0
vn -1 0 0
vn 0 0 1
vn 0 0 -1
vn 1 0 0
vn -1.3322676295501878e-15 -1 0
vn -0.7926239891045999 0.6097107608496928 0
vn 1 0 0
vn -1 0 0
vn 0 0 -1
vn 0 -1 1.3322676295501878e-15
vn 0 0.6097107608496928 0.7926239891045999
vn 1 0 0
vn -1 0 0
vn 0 1 0
vn 0 -1 0
vn 0 0 1
vn 0 0 -1
vn 1 0 0
vn -1 0 0
vn 0 1 0
vn 0 -1 0
vn 0 0 1
vn 0 0 -1
vn 1 0 0
vn -1 0 0
vn 0 1 0
vn 0 -1 0
vn 0 0 1
vn 0 0 -1
vn 1 0 0
vn -1 0 0
vn 0 1 0
vn 0 -1 0
vn 0 0 1
vn 0 0 -1
vn 1 0 0
vn -1 0 0
vn 0 1 0
vn 0 -1 0
vn 0 0 1
vn 0 0 -1
vn 1 0 0
vn -1 0 0
vn 0 1 0
vn 0 -1 0
vn 0 0 1
vn 0 0 -1
vn 1 0 0
vn -1 0 0
vn 0 1 0
vn 0 -1 0
vn 0 0 1
vn 0 0 -1
vn 1 0 0
vn -1 0 0
vn 0 1 0
vn 0 -1 0
vn 0 0 1
vn 0 0 -1
vn 1 0 0
vn -1 0 0
vn 0 1 0
vn 0 -1 0
vn 0 0 1
vn 0 0 -1
vn 0.9238795325112871 0.3826834323650892 0
vn -0.9238795325112866 -0.38268343236509034 0
vn -0.38268343236508967 0.9238795325112868 0
vn 0.38268343236508984 -0.9238795325112867 0
vn 0 0 1
vn 0 0 -1
vn 0.9238795325112871 -0.3826834323650892 0
vn -0.9238795325112871 0.3826834323650892 0
vn 0.3826834323650898 0.9238795325112868 0
vn -0.3826834323650898 -0.9238795325112868 0
vn 0 0 1
vn 0 0 -1
vn 0.9238795325112867 0.38268343236508984 0
vn -0.9238795325112866 -0.38268343236509034 0
vn -0.38268343236509006 0.9238795325112866 0
vn 0.3826834323650896 -0.923879532511287 0
vn 0 0 1
vn 0 0 -1
vn 1 0 0
vn -1 0 0
vn 0 1 0
vn 0 -1 0
vn 0 0 1
vn 0 0 -1
vn 0.9238795325112871 -0.3826834323650892 0
vn -0.9238795325112866 0.38268343236509034 0
vn 0.3826834323650902 0.9238795325112867 0
vn -0.38268343236509006 -0.9238795325112867 0
vn 0 0 1
vn 0 0 -1
vn 0.7071067811865476 -0.7071067811865476 0
vn -0.7071067811865471 0.707106781186548 0
vn 0.7071067811865476 0.7071067811865476 0
vn -0.7071067811865488 -0.7071067811865462 0
vn 0 0 1
vn 0 0 -1
vn 0.7071067811865478 0.7071067811865474 0
vn -0.7071067811865476 -0.7071067811865476 0
vn -0.7071067811865469 0.7071067811865481 0
vn 0.7071067811865476 -0.7071067811865476 0
vn 0 0 1
vn 0 0 -1
vn 0.7071067811865476 0.7071067811865476 0
vn -0.7071067811865469 -0.7071067811865481 0
vn -0.7071067811865469 0.7071067811865482 0
vn 0.7071067811865481 -0.7071067811865469 0
vn 0 0 1
vn 0 0 -1
vn 0.923879532511287 0.3826834323650896 0
vn -0.923879532511287 -0.3826834323650896 0
vn -0.3826834323650892 0.9238795325112871 0
vn 0.3826834323650892 -0.9238795325112871 0
vn 0 0 1
vn 0 0 -1
vn 0.9238795325112867 0.3826834323650902 0
vn -0.9238795325112867 -0.38268343236508995 0
vn -0.3826834323650892 0.9238795325112871 0
vn 0.38268343236509034 -0.9238795325112866 0
vn 0 0 1
vn 0 0 -1
vn 1 0 0
vn -1 0 0
vn 0 1 0
vn 0 -1 0
vn 0 0 1
vn 0 0 -1
vn 1 0 0
vn -1 0 0
vn 0 1 0
vn 0 -1 0
vn 0 0 1
vn 0 0 -1
vn 0.923879532511287 -0.3826834323650896 0
vn -0.9238795325112867 0.38268343236508995 0
vn 0.3826834323650892 0.9238795325112871 0
vn -0.3826834323650888 -0.9238795325112872 0
vn 0 0 1
vn 0 0 -1
vn 0.9238795325112867 -0.38268343236508995 0
vn -0.9238795325112868 0.38268343236508967 0
vn 0.3826834323650888 0.9238795325112872 0
vn -0.38268343236509034 -0.9238795325112866 0
vn 0 0 1
vn 0 0 -1
vn 0.7071067811865478 -0.7071067811865472 0
vn -0.7071067811865476 0.7071067811865476 0
vn 0.7071067811865481 0.7071067811865469 0
vn -0.7071067811865476 -0.7071067811865476 0
vn 0 0 1
vn 0 0 -1
vn 0.9238795325112872 0.3826834323650888 0
vn -0.9238795325112872 -0.3826834323650888 0
vn -0.3826834323650895 0.9238795325112871 0
vn 0.3826834323650895 -0.9238795325112871 0
vn 0 0 1
vn 0 0 -1
vn 0.9238795325112868 0.3826834323650896 0
vn -0.9238795325112866 -0.3826834323650901 0
vn -0.38268343236508967 0.9238795325112868 0
vn 0.38268343236509017 -0.9238795325112866 0
vn 0 0 1
vn 0 0 -1
vn 1 0 0
vn -1 0 0
vn 0 1 0
vn 0 -1 0
vn 0 0 1
vn 0 0 -1
vn 0.923879532511287 -0.38268343236508956 0
vn -0.9238795325112871 0.3826834323650892 0
vn 0.3826834323650888 0.9238795325112872 0
vn -0.3826834323650892 -0.9238795325112872 0
vn 0 0 1
vn 0 0 -1
vn 0.7071067811865476 0.7071067811865476 0
vn -0.7071067811865474 -0.7071067811865478 0
vn -0.7071067811865476 0.7071067811865476 0
vn 0.707106781186547 -0.7071067811865481 0
vn 0 0 1
vn 0 0 -1
vn 0.9238795325112872 -0.3826834323650892 0
vn -0.9238795325112872 0.3826834323650892 0
vn 0.3826834323650897 0.9238795325112868 0
vn -0.3826834323650897 -0.9238795325112868 0
vn 0 0 1
vn 0 0 -1
vn 0.9238795325112866 -0.3826834323650906 0
vn -0.9238795325112872 0.3826834323650888 0
vn 0.3826834323650899 0.9238795325112867 0
vn -0.3826834323650892 -0.923879532511287 0
vn 0 0 1
vn 0 0 -1
vn 0.7071067811865477 0.7071067811865474 0
vn -0.7071067811865472 -0.7071067811865478 0
vn -0.7071067811865476 0.7071067811865476 0
vn 0.7071067811865487 -0.7071067811865464 0
vn 0 0 1
vn 0 0 -1
vn 0.9238795325112867 0.38268343236508984 0
vn -0.923879532511287 -0.3826834323650898 0
vn -0.3826834323650892 0.9238795325112872 0
vn 0.3826834323650901 -0.9238795325112866 0
vn 0 0 1
vn 0 0 -1
vn 0.9238795325112866 0.38268343236509006 0
vn -0.9238795325112868 -0.38268343236508945 0
vn -0.3826834323650906 0.9238795325112866 0
vn 0.3826834323650888 -0.9238795325112872 0
vn 0 0 1
vn 0 0 -1
vn 1 0 0
vn -1 0 0
vn 0 1 0
vn 0 -1 0
vn 0 0 1
vn 0 0 -1
vn 1 0 0
vn -1 0 0
vn 0 1 0
vn 0 -1 0
vn 0 0 1
vn 0 0 -1
vn 0.9238795325112867 -0.38268343236509 0
vn -0.9238795325112867 0.38268343236509 0
vn 0.3826834323650901 0.9238795325112866 0
vn -0.3826834323650901 -0.9238795325112866 0
vn 0 0 1
vn 0 0 -1
vn 0.7071067811865472 -0.7071067811865478 0
vn -0.7071067811865476 0.7071067811865476 0
vn 0.7071067811865487 0.7071067811865464 0
vn -0.7071067811865481 -0.707106781186547 0
vn 0 0 1
vn 0 0 -1
vn 0.7071067811865478 -0.7071067811865474 0
vn -0.7071067811865472 0.7071067811865478 0
vn 0.7071067811865481 0.707106781186547 0
vn -0.707106781186547 -0.7071067811865481 0
vn 0 0 1
vn 0 0 -1
vn 1 0 0
vn -1 0 0
vn 0 1 0
vn 0 -1 0
vn 0 0 1
vn 0 0 -1
usemtl m_e9556827-8503-da12-7e90-f30f594cbd24
f 4/1/1 2/2/1 1/3/1 3/4/1
f 7/5/2 5/6/2 6/7/2 8/8/2
f 1/9/3 2/10/3 6/11/3 5/12/3
f 4/13/4 3/14/4 7/15/4 8/16/4
f 3/17/5 1/18/5 5/19/5 7/20/5
f 8/21/6 6/22/6 2/23/6 4/24/6
f 9/25/7 11/26/7 10/27/7
f 12/28/8 13/29/8 14/30/8
f 12/31/9 9/32/9 10/33/9 13/34/9
f 10/35/10 11/36/10 14/37/10 13/38/10
f 11/39/11 9/40/11 12/41/11 14/42/11
f 15/43/12 17/44/12 16/45/12
f 18/46/13 19/47/13 20/48/13
f 18/49/14 15/50/14 16/51/14 19/52/14
f 16/53/15 17/54/15 20/55/15 19/56/15
f 17/57/16 15/58/16 18/59/16 20/60/16
f 21/61/17 23/62/17 22/63/17
f 24/64/18 25/65/18 26/66/18
f 24/67/19 21/68/19 22/69/19 25/70/19
f 22/71/20 23/72/20 26/73/20 25/74/20
f 23/75/21 21/76/21 24/77/21 26/78/21
f 27/79/22 29/80/22 28/81/22
f 30/82/23 31/83/23 32/84/23
f 30/85/24 27/86/24 28/87/24 31/88/24
f 28/89/25 29/90/25 32/91/25 31/92/25
f 29/93/26 27/94/26 30/95/26 32/96/26
f 36/97/27 34/98/27 33/99/27 35/100/27
f 39/101/28 37/102/28 38/103/28 40/104/28
f 33/105/29 34/106/29 38/107/29 37/108/29
f 36/109/30 35/110/30 39/111/30 40/112/30
f 35/113/31 33/114/31 37/115/31 39/116/31
f 40/117/32 38/118/32 34/119/32 36/120/32
f 44/121/33 42/122/33 41/123/33 43/124/33
f 47/125/34 45/126/34 46/127/34 48/128/34
f 41/129/35 42/130/35 46/131/35 45/132/35
f 44/133/36 43/134/36 47/135/36 48/136/36
f 43/137/37 41/138/37 45/139/37 47/140/37
f 48/141/38 46/142/38 42/143/38 44/144/38
f 52/145/39 50/146/39 49/147/39 51/148/39
f 55/149/40 53/150/40 54/151/40 56/152/40
f 49/153/41 50/154/41 54/155/41 53/156/41
f 52/157/42 51/158/42 55/159/42 56/160/42
f 51/161/43 49/162/43 53/163/43 55/164/43
f 56/165/44 54/166/44 50/167/44 52/168/44
f 60/169/45 58/170/45 57/171/45 59/172/45
f 63/173/46 61/174/46 62/175/46 64/176/46
f 57/177/47 58/178/47 62/179/47 61/180/47
f 60/181/48 59/182/48 63/183/48 64/184/48
f 59/185/49 57/186/49 61/187/49 63/188/49
f 64/189/50 62/190/50 58/191/50 60/192/50
f 68/193/51 66/194/51 65/195/51 67/196/51
f 71/197/52 69/198/52 70/199/52 72/200/52
f 65/201/53 66/202/53 70/203/53 69/204/53
f 68/205/54 67/206/54 71/207/54 72/208/54
f 67/209/55 65/210/55 69/211/55 71/212/55
f 72/213/56 70/214/56 66/215/56 68/216/56
f 76/217/57 74/218/57 73/219/57 75/220/57
f 79/221/58 77/222/58 78/223/58 80/224/58
f 73/225/59 74/226/59 78/227/59 77/228/59
f 76/229/60 75/230/60 79/231/60 80/232/60
f 75/233/61 73/234/61 77/235/61 79/236/61
f 80/237/62 78/238/62 74/239/62 76/240/62
f 84/241/63 82/242/63 81/243/63 83/244/63
f 87/245/64 85/246/64 86/247/64 88/248/64
f 81/249/65 82/250/65 86/251/65 85/252/65
f 84/253/66 83/254/66 87/255/66 88/256/66
f 83/257/67 81/258/67 85/259/67 87/260/67
f 88/261/68 86/262/68 82/263/68 84/264/68
f 92/265/69 90/266/69 89/267/69 91/268/69
f 95/269/70 93/270/70 94/271/70 96/272/70
f 89/273/71 90/274/71 94/275/71 93/276/71
f 92/277/72 91/278/72 95/279/72 96/280/72
f 91/281/73 89/282/73 93/283/73 95/284/73
f 96/285/74 94/286/74 90/287/74 92/288/74
f 101/289/75 99/290/75 98/291/75 100/292/75
f 97/293/76 102/294/76 103/295/76 104/296/76
f 98/297/77 99/298/77 103/299/77 102/300/77
f 101/301/78 100/302/78 97/303/78 104/304/78
f 100/305/79 98/306/79 102/307/79 97/308/79
f 104/309/80 103/310/80 99/311/80 101/312/80
f 108/313/81 106/314/81 105/315/81 107/316/81
f 111/317/82 109/318/82 110/319/82 112/320/82
f 105/321/83 106/322/83 110/323/83 109/324/83
f 108/325/84 107/326/84 111/327/84 112/328/84
f 107/329/85 105/330/85 109/331/85 111/332/85
f 112/333/86 110/334/86 106/335/86 108/336/86
f 116/337/87 114/338/87 113/339/87 115/340/87
f 119/341/88 117/342/88 118/343/88 120/344/88
f 113/345/89 114/346/89 118/347/89 117/348/89
f 116/349/90 115/350/90 119/351/90 120/352/90
f 115/353/91 113/354/91 117/355/91 119/356/91
f 120/357/92 118/358/92 114/359/92 116/360/92
f 124/361/93 122/362/93 121/363/93 123/364/93
f 127/365/94 125/366/94 126/367/94 128/368/94
f 121/369/95 122/370/95 126/371/95 125/372/95
f 124/373/96 123/374/96 127/375/96 128/376/96
f 123/377/97 121/378/97 125/379/97 127/380/97
f 128/381/98 126/382/98 122/383/98 124/384/98
f 132/385/99 130/386/99 129/387/99 131/388/99
f 135/389/100 133/390/100 134/391/100 136/392/100
f 129/393/101 130/394/101 134/395/101 133/396/101
f 132/397/102 131/398/102 135/399/102 136/400/102
f 131/401/103 129/402/103 133/403/103 135/404/103
f 136/405/104 134/406/104 130/407/104 132/408/104
f 140/409/105 138/410/105 137/411/105 139/412/105
f 143/413/106 141/414/106 142/415/106 144/416/106
f 137/417/107 138/418/107 142/419/107 141/420/107
f 140/421/108 139/422/108 143/423/108 144/424/108
f 139/425/109 137/426/109 141/427/109 143/428/109
f 144/429/110 142/430/110 138/431/110 140/432/110
f 148/433/111 146/434/111 145/435/111 147/436/111
f 151/437/112 149/438/112 150/439/112 152/440/112
f 145/441/113 146/442/113 150/443/113 149/444/113
f 148/445/114 147/446/114 151/447/114 152/448/114
f 147/449/115 145/450/115 149/451/115 151/452/115
f 152/453/116 150/454/116 146/455/116 148/456/116
f 156/457/117 154/458/117 153/459/117 155/460/117
f 159/461/118 157/462/118 158/463/118 160/464/118
f 153/465/119 154/466/119 158/467/119 157/468/119
f 156/469/120 155/470/120 159/471/120 160/472/120
f 155/473/121 153/474/121 157/475/121 159/476/121
f 160/477/122 158/478/122 154/479/122 156/480/122
f 164/481/123 162/482/123 161/483/123 163/484/123
f 167/485/124 165/486/124 166/487/124 168/488/124
f 161/489/125 162/490/125 166/491/125 165/492/125
f 164/493/126 163/494/126 167/495/126 168/496/126
f 163/497/127 161/498/127 165/499/127 167/500/127
f 168/501/128 166/502/128 162/503/128 164/504/128
f 172/505/129 170/506/129 169/507/129 171/508/129
f 175/509/130 173/510/130 174/511/130 176/512/130
f 169/513/131 170/514/131 174/515/131 173/516/131
f 172/517/132 171/518/132 175/519/132 176/520/132
f 171/521/133 169/522/133 173/523/133 175/524/133
f 176/525/134 174/526/134 170/527/134 172/528/134
f 180/529/135 178/530/135 177/531/135 179/532/135
f 183/533/136 181/534/136 182/535/136 184/536/136
f 177/537/137 178/538/137 182/539/137 181/540/137
f 180/541/138 179/542/138 183/543/138 184/544/138
f 179/545/139 177/546/139 181/547/139 183/548/139
f 184/549/140 182/550/140 178/551/140 180/552/140
f 188/553/141 186/554/141 185/555/141 187/556/141
f 191/557/142 189/558/142 190/559/142 192/560/142
f 185/561/143 186/562/143 190/563/143 189/564/143
f 188/565/144 187/566/144 191/567/144 192/568/144
f 187/569/145 185/570/145 189/571/145 191/572/145
f 192/573/146 190/574/146 186/575/146 188/576/146
f 196/577/147 194/578/147 193/579/147 195/580/147
f 199/581/148 197/582/148 198/583/148 200/584/148
f 193/585/149 194/586/149 198/587/149 197/588/149
f 196/589/150 195/590/150 199/591/150 200/592/150
f 195/593/151 193/594/151 197/595/151 199/596/151
f 200/597/152 198/598/152 194/599/152 196/600/152
f 204/601/153 202/602/153 201/603/153 203/604/153
f 207/605/154 205/606/154 206/607/154 208/608/154
f 201/609/155 202/610/155 206/611/155 205/612/155
f 204/613/156 203/614/156 207/615/156 208/616/156
f 203/617/157 201/618/157 205/619/157 207/620/157
f 208/621/158 206/622/158 202/623/158 204/624/158
f 212/625/159 210/626/159 209/627/159 211/628/159
f 215/629/160 213/630/160 214/631/160 216/632/160
f 209/633/161 210/634/161 214/635/161 213/636/161
f 212/637/162 211/638/162 215/639/162 216/640/162
f 211/641/163 209/642/163 213/643/163 215/644/163
f 216/645/164 214/646/164 210/647/164 212/648/164
f 220/649/165 218/650/165 217/651/165 219/652/165
f 223/653/166 221/654/166 222/655/166 224/656/166
f 217/657/167 218/658/167 222/659/167 221/660/167
f 220/661/168 219/662/168 223/663/168 224/664/168
f 219/665/169 217/666/169 221/667/169 223/668/169
f 224/669/170 222/670/170 218/671/170 220/672/170
f 228/673/171 226/674/171 225/675/171 227/676/171
f 231/677/172 229/678/172 230/679/172 232/680/172
f 225/681/173 226/682/173 230/683/173 229/684/173
f 228/685/174 227/686/174 231/687/174 232/688/174
f 227/689/175 225/690/175 229/691/175 231/692/175
f 232/693/176 230/694/176 226/695/176 228/696/176
f 236/697/177 234/698/177 233/699/177 235/700/177
f 239/701/178 237/702/178 238/703/178 240/704/178
f 233/705/179 234/706/179 238/707/179 237/708/179
f 236/709/180 235/710/180 239/711/180 240/712/180
f 235/713/181 233/714/181 237/715/181 239/716/181
f 240/717/182 238/718/182 234/719/182 236/720/182
f 244/721/183 242/722/183 241/723/183 243/724/183
f 247/725/184 245/726/184 246/727/184 248/728/184
f 241/729/185 242/730/185 246/731/185 245/732/185
f 244/733/186 243/734/186 247/735/186 248/736/186
f 243/737/187 241/738/187 245/739/187 247/740/187
f 248/741/188 246/742/188 242/743/188 244/744/188
f 252/745/189 250/746/189 249/747/189 251/748/189
f 255/749/190 253/750/190 254/751/190 256/752/190
f 249/753/191 250/754/191 254/755/191 253/756/191
f 252/757/192 251/758/192 255/759/192 256/760/192
f 251/761/193 249/762/193 253/763/193 255/764/193
f 256/765/194 254/766/194 250/767/194 252/768/194
f 260/769/195 258/770/195 257/771/195 259/772/195
f 263/773/196 261/774/196 262/775/196 264/776/196
f 257/777/197 258/778/197 262/779/197 261/780/197
f 260/781/198 259/782/198 263/783/198 264/784/198
f 259/785/199 257/786/199 261/787/199 263/788/199
f 264/789/200 262/790/200 258/791/200 260/792/200
f 268/793/201 266/794/201 265/795/201 267/796/201
f 271/797/202 269/798/202 270/799/202 272/800/202
f 265/801/203 266/802/203 270/803/203 269/804/203
f 268/805/204 267/806/204 271/807/204 272/808/204
f 267/809/205 265/810/205 269/811/205 271/812/205
f 272/813/206 270/814/206 266/815/206 268/816/206
f 276/817/207 274/818/207 273/819/207 275/820/207
f 279/821/208 277/822/208 278/823/208 280/824/208
f 273/825/209 274/826/209 278/827/209 277/828/209
f 276/829/210 275/830/210 279/831/210 280/832/210
f 275/833/211 273/834/211 277/835/211 279/836/211
f 280/837/212 278/838/212 274/839/212 276/840/212
f 284/841/213 282/842/213 281/843/213 283/844/213
f 287/845/214 285/846/214 286/847/214 288/848/214
f 281/849/215 282/850/215 286/851/215 285/852/215
f 284/853/216 283/854/216 287/855/216 288/856/216
f 283/857/217 281/858/217 285/859/217 287/860/217
f 288/861/218 286/862/218 282/863/218 284/864/218
f 292/865/219 290/866/219 289/867/219 291/868/219
f 295/869/220 293/870/220 294/871/220 296/872/220
f 289/873/221 290/874/221 294/875/221 293/876/221
f 292/877/222 291/878/222 295/879/222 296/880/222
f 291/881/223 289/882/223 293/883/223 295/884/223
f 296/885/224 294/886/224 290/887/224 292/888/224
f 300/889/225 298/890/225 297/891/225 299/892/225
f 303/893/226 301/894/226 302/895/226 304/896/226
f 297/897/227 298/898/227 302/899/227 301/900/227
f 300/901/228 299/902/228 303/903/228 304/904/228
f 299/905/229 297/906/229 301/907/229 303/908/229
f 304/909/230 302/910/230 298/911/230 300/912/230
f 308/913/231 306/914/231 305/915/231 307/916/231
f 311/917/232 309/918/232 310/919/232 312/920/232
f 305/921/233 306/922/233 310/923/233 309/924/233
f 308/925/234 307/926/234 311/927/234 312/928/234
f 307/929/235 305/930/235 309/931/235 311/932/235
f 312/933/236 310/934/236 306/935/236 308/936/236
f 316/937/237 314/938/237 313/939/237 315/940/237
f 319/941/238 317/942/238 318/943/238 320/944/238
f 313/945/239 314/946/239 318/947/239 317/948/239
f 316/949/240 315/950/240 319/951/240 320/952/240
f 315/953/241 313/954/241 317/955/241 319/956/241
f 320/957/242 318/958/242 314/959/242 316/960/242
f 324/961/243 322/962/243 321/963/243 323/964/243
f 327/965/244 325/966/244 326/967/244 328/968/244
f 321/969/245 322/970/245 326/971/245 325/972/245
f 324/973/246 323/974/246 327/975/246 328/976/246
f 323/977/247 321/978/247 325/979/247 327/980/247
f 328/981/248 326/982/248 322/983/248 324/984/248
f 332/985/249 330/986/249 329/987/249 331/988/249
f 335/989/250 333/990/250 334/991/250 336/992/250
f 329/993/251 330/994/251 334/995/251 333/996/251
f 332/997/252 331/998/252 335/999/252 336/1000/252
f 331/1001/253 329/1002/253 333/1003/253 335/1004/253
f 336/1005/254 334/1006/254 330/1007/254 332/1008/254
f 340/1009/255 338/1010/255 337/1011/255 339/1012/255
f 343/1013/256 341/1014/256 342/1015/256 344/1016/256
f 337/1017/257 338/1018/257 342/1019/257 341/1020/257
f 340/1021/258 339/1022/258 343/1023/258 344/1024/258
f 339/1025/259 337/1026/259 341/1027/259 343/1028/259
f 344/1029/260 342/1030/260 338/1031/260 340/1032/260
f 348/1033/261 346/1034/261 345/1035/261 347/1036/261
f 351/1037/262 349/1038/262 350/1039/262 352/1040/262
f 345/1041/263 346/1042/263 350/1043/263 349/1044/263
f 348/1045/264 347/1046/264 351/1047/264 352/1048/264
f 347/1049/265 345/1050/265 349/1051/265 351/1052/265
f 352/1053/266 350/1054/266 346/1055/266 348/1056/266
o hexadecagon
v 0.42919318783118476 0 0.6059698831278216
v 0.6059698831278216 0 0.42919318783118476
v 0.42919318783118476 -0.48437499999999994 0.6059698831278216
v 0.6059698831278216 -0.48437499999999994 0.42919318783118476
v 0.39403011687217826 0 0.5708068121688151
v 0.5708068121688152 0 0.3940301168721783
v 0.39403011687217826 -0.48437499999999994 0.5708068121688151
v 0.5708068121688152 -0.48437499999999994 0.3940301168721783
v 0.4751359540775427 0 0.625
v 0.5708068121688151 0 0.39403011687217837
v 0.4751359540775427 -0.48437499999999994 0.625
v 0.5708068121688151 -0.48437499999999994 0.39403011687217837
v 0.42919318783118476 0 0.6059698831278217
v 0.5248640459224572 0 0.375
v 0.42919318783118476 -0.48437499999999994 0.6059698831278217
v 0.5248640459224572 -0.48437499999999994 0.375
v 0.5248640459224573 0 0.625
v 0.5248640459224572 0 0.375
v 0.5248640459224573 -0.48437499999999994 0.625
v 0.5248640459224572 -0.48437499999999994 0.375
v 0.4751359540775428 0 0.625
v 0.4751359540775428 0 0.37500000000000006
v 0.4751359540775428 -0.48437499999999994 0.625
v 0.4751359540775428 -0.48437499999999994 0.37500000000000006
v 0.5708068121688151 0 0.6059698831278217
v 0.47513595407754267 0 0.375
v 0.5708068121688151 -0.48437499999999994 0.6059698831278217
v 0.47513595407754267 -0.48437499999999994 0.375
v 0.5248640459224573 0 0.625
v 0.42919318783118476 0 0.3940301168721783
v 0.5248640459224573 -0.48437499999999994 0.625
v 0.42919318783118476 -0.48437499999999994 0.3940301168721783
v 0.6059698831278216 0 0.5708068121688152
v 0.42919318783118476 0 0.39403011687217837
v 0.6059698831278216 -0.48437499999999994 0.5708068121688152
v 0.42919318783118476 -0.48437499999999994 0.39403011687217837
v 0.5708068121688152 0 0.6059698831278217
v 0.3940301168721783 0 0.4291931878311848
v 0.5708068121688152 -0.48437499999999994 0.6059698831278217
v 0.3940301168721783 -0.48437499999999994 0.4291931878311848
v 0.6059698831278217 0 0.5708068121688151
v 0.625 0 0.5248640459224573
v 0.6059698831278217 -0.48437499999999994 0.5708068121688151
v 0.625 -0.48437499999999994 0.5248640459224573
v 0.375 0 0.47513595407754267
v 0.39403011687217837 0 0.42919318783118476
v 0.375 -0.48437499999999994 0.47513595407754267
v 0.39403011687217837 -0.48437499999999994 0.42919318783118476
v 0.625 0 0.5248640459224573
v 0.625 0 0.4751359540775428
v 0.625 -0.48437499999999994 0.5248640459224573
v 0.625 -0.48437499999999994 0.4751359540775428
v 0.375 0 0.5248640459224572
v 0.37500000000000006 0 0.4751359540775428
v 0.375 -0.48437499999999994 0.5248640459224572
v 0.37500000000000006 -0.48437499999999994 0.4751359540775428
v 0.625 0 0.4751359540775428
v 0.6059698831278217 0 0.42919318783118476
v 0.625 -0.48437499999999994 0.4751359540775428
v 0.6059698831278217 -0.48437499999999994 0.42919318783118476
v 0.3940301168721783 0 0.5708068121688151
v 0.375 0 0.5248640459224572
v 0.3940301168721783 -0.48437499999999994 0.5708068121688151
v 0.375 -0.48437499999999994 0.5248640459224572
vt 0.0625 0.87890625
vt 0.0625 1
vt 0 1
vt 0 0.87890625
vt 0.140625 0.87890625
vt 0.140625 1
vt 0.078125 1
vt 0.078125 0.87890625
vt 0.38671875 0.515625
vt 0.38671875 0.578125
vt 0.375 0.578125
vt 0.375 0.515625
vt 0.41796875 0.515625
vt 0.41796875 0.578125
vt 0.40625 0.578125
vt 0.40625 0.515625
vt 0.40234375 0.73828125
vt 0.40234375 0.859375
vt 0.390625 0.859375
vt 0.390625 0.73828125
vt 0.40234375 0.59765625
vt 0.40234375 0.71875
vt 0.390625 0.71875
vt 0.390625 0.59765625
vt 0.21875 0.87890625
vt 0.21875 1
vt 0.15625 1
vt 0.15625 0.87890625
vt 0.21875 0.73828125
vt 0.21875 0.859375
vt 0.15625 0.859375
vt 0.15625 0.73828125
vt 0.44921875 0.515625
vt 0.44921875 0.578125
vt 0.4375 0.578125
vt 0.4375 0.515625
vt 0.453125 0.84765625
vt 0.515625 0.84765625
vt 0.515625 0.859375
vt 0.453125 0.859375
vt 0.16796875 0.45703125
vt 0.16796875 0.578125
vt 0.15625 0.578125
vt 0.15625 0.45703125
vt 0.19921875 0.45703125
vt 0.19921875 0.578125
vt 0.1875 0.578125
vt 0.1875 0.45703125
vt 0.375 0.59765625
vt 0.375 0.71875
vt 0.3125 0.71875
vt 0.3125 0.59765625
vt 0.375 0.87890625
vt 0.375 1
vt 0.3125 1
vt 0.3125 0.87890625
vt 0.46484375 0.765625
vt 0.46484375 0.828125
vt 0.453125 0.828125
vt 0.453125 0.765625
vt 0.453125 0.73828125
vt 0.515625 0.73828125
vt 0.515625 0.75
vt 0.453125 0.75
vt 0.32421875 0.45703125
vt 0.32421875 0.578125
vt 0.3125 0.578125
vt 0.3125 0.45703125
vt 0.29296875 0.45703125
vt 0.29296875 0.578125
vt 0.28125 0.578125
vt 0.28125 0.45703125
vt 0.0625 0.59765625
vt 0.0625 0.71875
vt 0 0.71875
vt 0 0.59765625
vt 0.140625 0.59765625
vt 0.140625 0.71875
vt 0.078125 0.71875
vt 0.078125 0.59765625
vt 0.46484375 0.65625
vt 0.46484375 0.71875
vt 0.453125 0.71875
vt 0.453125 0.65625
vt 0.453125 0.62890625
vt 0.515625 0.62890625
vt 0.515625 0.640625
vt 0.453125 0.640625
vt 0.07421875 0.45703125
vt 0.07421875 0.578125
vt 0.0625 0.578125
vt 0.0625 0.45703125
vt 0.10546875 0.45703125
vt 0.10546875 0.578125
vt 0.09375 0.578125
vt 0.09375 0.45703125
vt 0.0625 0.73828125
vt 0.0625 0.859375
vt 0 0.859375
vt 0 0.73828125
vt 0.140625 0.73828125
vt 0.140625 0.859375
vt 0.078125 0.859375
vt 0.078125 0.73828125
vt 0.515625 0.609375
vt 0.453125 0.609375
vt 0.453125 0.59765625
vt 0.515625 0.59765625
vt 0.46875 0.98828125
vt 0.53125 0.98828125
vt 0.53125 1
vt 0.46875 1
vt 0.04296875 0.45703125
vt 0.04296875 0.578125
vt 0.03125 0.578125
vt 0.03125 0.45703125
vt 0.01171875 0.45703125
vt 0.01171875 0.578125
vt 0 0.578125
vt 0 0.45703125
vt 0.13671875 0.45703125
vt 0.13671875 0.578125
vt 0.125 0.578125
vt 0.125 0.45703125
vt 0.43359375 0.73828125
vt 0.43359375 0.859375
vt 0.421875 0.859375
vt 0.421875 0.73828125
vt 0.53125 0.95703125
vt 0.53125 0.96875
vt 0.46875 0.96875
vt 0.46875 0.95703125
vt 0.46875 0.875
vt 0.48046875 0.875
vt 0.48046875 0.9375
vt 0.46875 0.9375
vt 0.21875 0.59765625
vt 0.21875 0.71875
vt 0.15625 0.71875
vt 0.15625 0.59765625
vt 0.296875 0.59765625
vt 0.296875 0.71875
vt 0.234375 0.71875
vt 0.234375 0.59765625
vt 0.35546875 0.45703125
vt 0.35546875 0.578125
vt 0.34375 0.578125
vt 0.34375 0.45703125
vt 0.43359375 0.59765625
vt 0.43359375 0.71875
vt 0.421875 0.71875
vt 0.421875 0.59765625
vt 0.53125 0.56640625
vt 0.53125 0.578125
vt 0.46875 0.578125
vt 0.46875 0.56640625
vt 0.46875 0.484375
vt 0.48046875 0.484375
vt 0.48046875 0.546875
vt 0.46875 0.546875
vt 0.453125 0.87890625
vt 0.453125 1
vt 0.390625 1
vt 0.390625 0.87890625
vt 0.375 0.73828125
vt 0.375 0.859375
vt 0.3125 0.859375
vt 0.3125 0.73828125
vt 0.23046875 0.45703125
vt 0.23046875 0.578125
vt 0.21875 0.578125
vt 0.21875 0.45703125
vt 0.26171875 0.45703125
vt 0.26171875 0.578125
vt 0.25 0.578125
vt 0.25 0.45703125
vt 0.546875 0.81640625
vt 0.546875 0.828125
vt 0.484375 0.828125
vt 0.484375 0.81640625
vt 0.484375 0.65625
vt 0.49609375 0.65625
vt 0.49609375 0.71875
vt 0.484375 0.71875
vt 0.296875 0.87890625
vt 0.296875 1
vt 0.234375 1
vt 0.234375 0.87890625
vt 0.296875 0.73828125
vt 0.296875 0.859375
vt 0.234375 0.859375
vt 0.234375 0.73828125
vn 0.7071067811865475 0 0.7071067811865476
vn -0.7071067811865475 0 -0.7071067811865476
vn 0 1 0
vn 0 -1 0
vn -0.7071067811865476 0 0.7071067811865475
vn 0.7071067811865476 0 -0.7071067811865475
vn 0.923879532511287 0 0.38268343236508967
vn -0.923879532511287 0 -0.38268343236508967
vn 0 1 0
vn 0 -1 0
vn -0.38268343236508984 0 0.9238795325112867
vn 0.38268343236508984 0 -0.9238795325112867
vn 1 0 -2.220446049250313e-16
vn -1 0 -1.1102230246251565e-16
vn 0 1 0
vn 0 -1 0
vn -7.216449660063518e-16 0 1
vn -7.216449660063519e-16 0 -1
vn 0.923879532511287 0 -0.3826834323650898
vn -0.923879532511287 0 0.3826834323650898
vn 0 1 0
vn 0 -1 0
vn 0.38268343236509034 0 0.9238795325112865
vn -0.38268343236509034 0 -0.9238795325112865
vn 0.7071067811865476 0 -0.7071067811865475
vn -0.7071067811865475 0 0.7071067811865476
vn 0 1 0
vn 0 -1 0
vn 0.707106781186549 0 0.707106781186546
vn -0.7071067811865475 0 -0.7071067811865476
vn 0.9238795325112865 0 0.38268343236509045
vn -0.9238795325112865 0 -0.38268343236509045
vn 0 1 0
vn 0 -1 0
vn -0.38268343236508984 0 0.9238795325112867
vn 0.38268343236508984 0 -0.9238795325112867
vn 1 0 -6.661338147750939e-16
vn -1 0 -8.326672684688674e-16
vn 0 1 0
vn 0 -1 0
vn -3.885780586188048e-16 0 1
vn 1.1102230246251565e-16 0 -1
vn 0.923879532511287 0 -0.3826834323650898
vn -0.923879532511287 0 0.3826834323650898
vn 0 1 0
vn 0 -1 0
vn 0.3826834323650895 0 0.923879532511287
vn -0.3826834323650895 0 -0.923879532511287
usemtl m_fffb8c72-3a89-dc4c-3f10-0c9918b2788f
f 356/1057/267 354/1058/267 353/1059/267 355/1060/267
f 359/1061/268 357/1062/268 358/1063/268 360/1064/268
f 353/1065/269 354/1066/269 358/1067/269 357/1068/269
f 356/1069/270 355/1070/270 359/1071/270 360/1072/270
f 355/1073/271 353/1074/271 357/1075/271 359/1076/271
f 360/1077/272 358/1078/272 354/1079/272 356/1080/272
f 364/1081/273 362/1082/273 361/1083/273 363/1084/273
f 367/1085/274 365/1086/274 366/1087/274 368/1088/274
f 361/1089/275 362/1090/275 366/1091/275 365/1092/275
f 364/1093/276 363/1094/276 367/1095/276 368/1096/276
f 363/1097/277 361/1098/277 365/1099/277 367/1100/277
f 368/1101/278 366/1102/278 362/1103/278 364/1104/278
f 372/1105/279 370/1106/279 369/1107/279 371/1108/279
f 375/1109/280 373/1110/280 374/1111/280 376/1112/280
f 369/1113/281 370/1114/281 374/1115/281 373/1116/281
f 372/1117/282 371/1118/282 375/1119/282 376/1120/282
f 371/1121/283 369/1122/283 373/1123/283 375/1124/283
f 376/1125/284 374/1126/284 370/1127/284 372/1128/284
f 380/1129/285 378/1130/285 377/1131/285 379/1132/285
f 383/1133/286 381/1134/286 382/1135/286 384/1136/286
f 377/1137/287 378/1138/287 382/1139/287 381/1140/287
f 380/1141/288 379/1142/288 383/1143/288 384/1144/288
f 379/1145/289 377/1146/289 381/1147/289 383/1148/289
f 384/1149/290 382/1150/290 378/1151/290 380/1152/290
f 388/1153/291 386/1154/291 385/1155/291 387/1156/291
f 391/1157/292 389/1158/292 390/1159/292 392/1160/292
f 385/1161/293 386/1162/293 390/1163/293 389/1164/293
f 388/1165/294 387/1166/294 391/1167/294 392/1168/294
f 387/1169/295 385/1170/295 389/1171/295 391/1172/295
f 392/1173/296 390/1174/296 386/1175/296 388/1176/296
f 396/1177/297 394/1178/297 393/1179/297 395/1180/297
f 399/1181/298 397/1182/298 398/1183/298 400/1184/298
f 393/1185/299 394/1186/299 398/1187/299 397/1188/299
f 396/1189/300 395/1190/300 399/1191/300 400/1192/300
f 395/1193/301 393/1194/301 397/1195/301 399/1196/301
f 400/1197/302 398/1198/302 394/1199/302 396/1200/302
f 404/1201/303 402/1202/303 401/1203/303 403/1204/303
f 407/1205/304 405/1206/304 406/1207/304 408/1208/304
f 401/1209/305 402/1210/305 406/1211/305 405/1212/305
f 404/1213/306 403/1214/306 407/1215/306 408/1216/306
f 403/1217/307 401/1218/307 405/1219/307 407/1220/307
f 408/1221/308 406/1222/308 402/1223/308 404/1224/308
f 412/1225/309 410/1226/309 409/1227/309 411/1228/309
f 415/1229/310 413/1230/310 414/1231/310 416/1232/310
f 409/1233/311 410/1234/311 414/1235/311 413/1236/311
f 412/1237/312 411/1238/312 415/1239/312 416/1240/312
f 411/1241/313 409/1242/313 413/1243/313 415/1244/313
f 416/1245/314 414/1246/314 410/1247/314 412/1248/314