# Made in Blockbench 5.1.6
mtllib sign_post_connection.mtl

o hexadecagon
v 0.6112683728575826 -0.3125 0.4256528512254836
v 0.6324623539097771 -0.0625 0.411491484788981
v 0.41149148478898095 -0.0625 0.6324623539097771
v 0.42565284978063483 -0.3125 0.6112683718921655
v 0.3887316271424174 -0.3125 0.5743471487745164
v 0.36753764609022294 -0.0625 0.588508515211019
v 0.588508515211019 -0.0625 0.36753764609022294
v 0.5743471502193651 -0.3125 0.3887316281078344
v 0.6324623539097771 -0.0625 0.41149148478898107
v 0.65625 -0.0625 0.46891994259692843
v 0.631249994378545 -0.3125 0.47389275378547097
v 0.367537646090223 -0.0625 0.5885085152110191
v 0.34375000000000006 -0.0625 0.5310800574030716
v 0.3687500056214551 -0.3125 0.5261072462145291
v 0.65625 -0.0625 0.46891994259692854
v 0.65625 -0.0625 0.5310800574030715
v 0.6312499940395355 -0.3125 0.5261072479188442
v 0.34375 -0.0625 0.5310800574030715
v 0.34375000000000006 -0.0625 0.46891994259692854
v 0.3687500059604645 -0.3125 0.4738927520811558
v 0.65625 -0.0625 0.5310800574030717
v 0.6324623539097771 -0.0625 0.588508515211019
v 0.6112683718921657 -0.3125 0.5743471502193651
v 0.3687500059604645 -0.3125 0.4738927520811558
v 0.34375 -0.0625 0.4689199425969284
v 0.36753764609022294 -0.0625 0.4114914847889811
v 0.3887316271424174 -0.3125 0.42565285122548363
v 0.4256528497806349 -0.3125 0.3887316281078344
v 0.411491484788981 -0.0625 0.36753764609022294
v 0.6324623539097771 -0.0625 0.588508515211019
v 0.5743471487745164 -0.3125 0.6112683728575826
v 0.588508515211019 -0.0625 0.6324623539097771
v 0.3675376460902229 -0.0625 0.411491484788981
v 0.473892753785471 -0.3125 0.3687500056214551
v 0.4689199425969284 -0.0625 0.34375
v 0.588508515211019 -0.0625 0.6324623539097771
v 0.526107246214529 -0.3125 0.631249994378545
v 0.5310800574030716 -0.0625 0.65625
v 0.411491484788981 -0.0625 0.3675376460902229
v 0.5261072479188442 -0.3125 0.36875000596046453
v 0.5310800574030715 -0.0625 0.34375
v 0.5310800574030715 -0.0625 0.65625
v 0.4738927520811558 -0.3125 0.6312499940395355
v 0.46891994259692854 -0.0625 0.65625
v 0.46891994259692854 -0.0625 0.34375
v 0.473892753785471 -0.3125 0.3687500056214551
v 0.588508515211019 -0.0625 0.3675376460902229
v 0.4689199425969284 -0.0625 0.65625
v 0.4114914847889811 -0.0625 0.6324623539097771
v 0.5310800574030717 -0.0625 0.34375000000000006
v 0.5261072479188442 -0.3125 0.3687500059604645
v 0.5310800574030715 -0.0625 0.25000000000000006
v 0.5310800574030715 -0.046875 0.25000000000000006
v 0.5310800574030716 -0.046875 0.7500000000000001
v 0.5310800574030716 -0.0625 0.7500000000000001
v 0.4689199425969285 -0.0625 0.75
v 0.4689199425969285 -0.046875 0.75
v 0.4689199425969286 -0.046875 0.25000000000000006
v 0.4689199425969286 -0.0625 0.25000000000000006
v 0.6324623539097771 -0.0625 0.35838637566236975
v 0.6324623539097771 -0.046875 0.35838637566236975
v 0.65625 -0.046875 0.45027190815508544
v 0.65625 -0.0625 0.45027190815508544
v 0.3675376460902229 -0.0625 0.6416136243376305
v 0.3675376460902229 -0.046875 0.6416136243376305
v 0.34375 -0.046875 0.5497280918449147
v 0.34375 -0.0625 0.5497280918449147
v 0.65625 -0.0625 0.4502719081550856
v 0.65625 -0.046875 0.4502719081550856
v 0.65625 -0.046875 0.5497280918449144
v 0.65625 -0.0625 0.5497280918449144
v 0.34375 -0.0625 0.5497280918449144
v 0.34375 -0.046875 0.5497280918449144
v 0.34375000000000006 -0.046875 0.4502719081550856
v 0.34375000000000006 -0.0625 0.4502719081550856
v 0.65625 -0.0625 0.5497280918449147
v 0.65625 -0.046875 0.5497280918449147
v 0.6324623539097771 -0.046875 0.6416136243376304
v 0.6324623539097771 -0.0625 0.6416136243376304
v 0.34375 -0.0625 0.45027190815508544
v 0.34375 -0.046875 0.45027190815508544
v 0.367537646090223 -0.046875 0.35838637566236986
v 0.367537646090223 -0.0625 0.35838637566236986
v 0.411491484788981 -0.0625 0.2880602337443568
v 0.411491484788981 -0.046875 0.2880602337443568
v 0.6324623539097771 -0.046875 0.6416136243376304
v 0.6324623539097771 -0.0625 0.6416136243376304
v 0.588508515211019 -0.0625 0.7119397662556434
v 0.588508515211019 -0.046875 0.7119397662556434
v 0.367537646090223 -0.046875 0.3583863756623697
v 0.367537646090223 -0.0625 0.3583863756623697
v 0.46891994259692843 -0.0625 0.25000000000000006
v 0.46891994259692843 -0.046875 0.25000000000000006
v 0.588508515211019 -0.046875 0.7119397662556434
v 0.588508515211019 -0.0625 0.7119397662556434
v 0.5310800574030716 -0.0625 0.75
v 0.5310800574030716 -0.046875 0.75
v 0.4114914847889811 -0.046875 0.2880602337443567
v 0.4114914847889811 -0.0625 0.2880602337443567
v 0.588508515211019 -0.0625 0.28806023374435663
v 0.588508515211019 -0.046875 0.28806023374435663
v 0.4689199425969285 -0.046875 0.7500000000000001
v 0.4689199425969285 -0.0625 0.7500000000000001
v 0.41149148478898107 -0.0625 0.7119397662556435
v 0.41149148478898107 -0.046875 0.7119397662556435
v 0.5310800574030717 -0.046875 0.25000000000000006
v 0.5310800574030717 -0.0625 0.25000000000000006
v 0.6324623539097771 -0.0625 0.35838637566236964
v 0.6324623539097771 -0.046875 0.35838637566236964
v 0.411491484788981 -0.046875 0.7119397662556435
v 0.411491484788981 -0.0625 0.7119397662556435
v 0.367537646090223 -0.0625 0.6416136243376304
v 0.367537646090223 -0.046875 0.6416136243376304
v 0.588508515211019 -0.046875 0.28806023374435685
v 0.588508515211019 -0.0625 0.28806023374435685
v 0.5310800574030716 -0.028124999999999956 0.09375000000000006
v 0.5310800574030716 0 0.09375000000000006
v 0.5310800574030716 0 0.9062500000000001
v 0.5310800574030716 -0.028124999999999956 0.9062500000000001
v 0.4689199425969285 -0.028124999999999956 0.90625
v 0.4689199425969285 0 0.90625
v 0.4689199425969286 0 0.09375000000000006
v 0.4689199425969286 -0.028124999999999956 0.09375000000000006
v 0.6324623539097771 -0.028124999999999956 0.26987786045135076
v 0.6324623539097771 0 0.26987786045135076
v 0.6562500000000001 0 0.4191918507520139
v 0.6562500000000001 -0.028124999999999956 0.4191918507520139
v 0.3675376460902229 -0.028124999999999956 0.7301221395486494
v 0.3675376460902229 0 0.7301221395486494
v 0.34375 0 0.5808081492479862
v 0.34375 -0.028124999999999956 0.5808081492479862
v 0.65625 -0.028124999999999956 0.4191918507520141
v 0.65625 0 0.4191918507520141
v 0.6562500000000001 0 0.580808149247986
v 0.6562500000000001 -0.028124999999999956 0.580808149247986
v 0.3437500000000001 -0.028124999999999956 0.580808149247986
v 0.3437500000000001 0 0.580808149247986
v 0.34375 0 0.41919185075201404
v 0.34375 -0.028124999999999956 0.41919185075201404
v 0.65625 -0.028124999999999956 0.5808081492479862
v 0.65625 0 0.5808081492479862
v 0.6324623539097772 0 0.7301221395486494
v 0.6324623539097772 -0.028124999999999956 0.7301221395486494
v 0.3437500000000001 -0.028124999999999956 0.4191918507520138
v 0.3437500000000001 0 0.4191918507520138
v 0.3675376460902229 0 0.2698778604513508
v 0.3675376460902229 -0.028124999999999956 0.2698778604513508
v 0.411491484788981 -0.028124999999999956 0.15559787983457973
v 0.411491484788981 0 0.15559787983457973
v 0.6324623539097772 0 0.7301221395486494
v 0.6324623539097772 -0.028124999999999956 0.7301221395486494
v 0.588508515211019 -0.028124999999999956 0.8444021201654206
v 0.588508515211019 0 0.8444021201654206
v 0.36753764609022294 0 0.26987786045135065
v 0.36753764609022294 -0.028124999999999956 0.26987786045135065
v 0.46891994259692843 -0.028124999999999956 0.09375000000000006
v 0.46891994259692843 0 0.09375000000000006
v 0.588508515211019 0 0.8444021201654206
v 0.588508515211019 -0.028124999999999956 0.8444021201654206
v 0.5310800574030716 -0.028124999999999956 0.90625
v 0.5310800574030716 0 0.90625
v 0.41149148478898107 0 0.1555978798345795
v 0.41149148478898107 -0.028124999999999956 0.1555978798345795
v 0.588508515211019 -0.028124999999999956 0.1555978798345795
v 0.588508515211019 0 0.1555978798345795
v 0.46891994259692843 0 0.9062500000000001
v 0.46891994259692843 -0.028124999999999956 0.9062500000000001
v 0.4114914847889811 -0.028124999999999956 0.8444021201654206
v 0.4114914847889811 0 0.8444021201654206
v 0.5310800574030717 0 0.09375000000000011
v 0.5310800574030717 -0.028124999999999956 0.09375000000000011
v 0.6324623539097771 -0.028124999999999956 0.26987786045135065
v 0.6324623539097771 0 0.26987786045135065
v 0.41149148478898107 0 0.8444021201654206
v 0.41149148478898107 -0.028124999999999956 0.8444021201654206
v 0.36753764609022294 -0.028124999999999956 0.7301221395486494
v 0.36753764609022294 0 0.7301221395486494
v 0.588508515211019 0 0.15559787983457973
v 0.588508515211019 -0.028124999999999956 0.15559787983457973
vt 0.15 0.9375
vt 0.15625 1
vt 0.078125 1
vt 0.084375 0.9375
vt 0.15 0.875
vt 0.15625 0.9375
vt 0.078125 0.9375
vt 0.084375 0.875
vt 0.28125 0.546875
vt 0.28125 0.625
vt 0.265625 0.625
vt 0.265625 0.546875
vt 0.32421875 0.48046875
vt 0.32421875 0.546875
vt 0.3125 0.546875
vt 0.3125 0.48046875
vt 0.1862140625 0.546875
vt 0.1874578125 0.609375
vt 0.1719171875 0.609375
vt 0.1731609375 0.546875
vt 0.1549640625 0.53125
vt 0.1562078125 0.59375
vt 0.1406671875 0.59375
vt 0.1419109375 0.53125
vt 0.186171875 0.484375
vt 0.187415625 0.546875
vt 0.171875 0.546875
vt 0.17311875 0.484375
vt 0.451796875 0.5
vt 0.453040625 0.5625
vt 0.4375 0.5625
vt 0.43874375 0.5
vt 0.46875 0.90625
vt 0.46875 0.921875
vt 0.390625 0.921875
vt 0.390625 0.90625
vt 0.328125 0.48046875
vt 0.33984375 0.48046875
vt 0.33984375 0.546875
vt 0.328125 0.546875
vt 0.15 0.8125
vt 0.15625 0.875
vt 0.078125 0.875
vt 0.084375 0.8125
vt 0.228125 0.9375
vt 0.234375 1
vt 0.15625 1
vt 0.1625 0.9375
vt 0.248671875 0.484375
vt 0.249915625 0.546875
vt 0.234375 0.546875
vt 0.23561875 0.484375
vt 0.279921875 0.484375
vt 0.281165625 0.546875
vt 0.265625 0.546875
vt 0.26686875 0.484375
vt 0.46875 0.890625
vt 0.46875 0.90625
vt 0.390625 0.90625
vt 0.390625 0.890625
vt 0.453125 0.48046875
vt 0.46484375 0.48046875
vt 0.46484375 0.546875
vt 0.453125 0.546875
vt 0.30625 0.75
vt 0.3125 0.8125
vt 0.234375 0.8125
vt 0.240625 0.75
vt 0.30625 0.9375
vt 0.3125 1
vt 0.234375 1
vt 0.240625 0.9375
vt 0.404921875 0.5
vt 0.406165625 0.5625
vt 0.390625 0.5625
vt 0.39186875 0.5
vt 0.420546875 0.5
vt 0.421790625 0.5625
vt 0.40625 0.5625
vt 0.40749375 0.5
vt 0.46875 0.875
vt 0.46875 0.890625
vt 0.390625 0.890625
vt 0.390625 0.875
vt 0.015625 0.46484375
vt 0.02734375 0.46484375
vt 0.02734375 0.53125
vt 0.015625 0.53125
vt 0.15 0.75
vt 0.15625 0.8125
vt 0.078125 0.8125
vt 0.084375 0.75
vt 0.228125 0.75
vt 0.234375 0.8125
vt 0.15625 0.8125
vt 0.1625 0.75
vt 0.071875 0.875
vt 0.078125 0.9375
vt 0 0.9375
vt 0.006249999999999999 0.875
vt 0.071875 0.9375
vt 0.078125 1
vt 0 1
vt 0.006249999999999999 0.9375
vt 0.46875 0.71875
vt 0.390625 0.71875
vt 0.390625 0.703125
vt 0.46875 0.703125
vt 0.46875 0.91015625
vt 0.53515625 0.91015625
vt 0.53515625 0.921875
vt 0.46875 0.921875
vt 0.3580890625 0.5
vt 0.3593328125 0.5625
vt 0.3437921875 0.5625
vt 0.3450359375 0.5
vt 0.3737140625 0.5
vt 0.3749578125 0.5625
vt 0.3594171875 0.5625
vt 0.3606609375 0.5
vt 0.071875 0.75
vt 0.078125 0.8125
vt 0 0.8125
vt 0.006249999999999999 0.75
vt 0.228125 0.8125
vt 0.234375 0.875
vt 0.15625 0.875
vt 0.1625 0.8125
vt 0.296875 0.546875
vt 0.296875 0.625
vt 0.28125 0.625
vt 0.28125 0.546875
vt 0.46875 0.89453125
vt 0.53515625 0.89453125
vt 0.53515625 0.90625
vt 0.46875 0.90625
vt 0.38938125 0.5
vt 0.390625 0.5625
vt 0.375084375 0.5625
vt 0.376328125 0.5
vt 0.43625625 0.5
vt 0.4375 0.5625
vt 0.421959375 0.5625
vt 0.423203125 0.5
vt 0.30625 0.8125
vt 0.3125 0.875
vt 0.234375 0.875
vt 0.240625 0.8125
vt 0.30625 0.875
vt 0.3125 0.9375
vt 0.234375 0.9375
vt 0.240625 0.875
vt 0.03125 0.53125
vt 0.03125 0.609375
vt 0.015625 0.609375
vt 0.015625 0.53125
vt 0.46875 0.87890625
vt 0.53515625 0.87890625
vt 0.53515625 0.890625
vt 0.46875 0.890625
vt 0.26438125 0.484375
vt 0.265625 0.546875
vt 0.250084375 0.546875
vt 0.251328125 0.484375
vt 0.29563125 0.484375
vt 0.296875 0.546875
vt 0.281334375 0.546875
vt 0.282578125 0.484375
vt 0.228125 0.875
vt 0.234375 0.9375
vt 0.15625 0.9375
vt 0.1625 0.875
vt 0.071875 0.8125
vt 0.078125 0.875
vt 0 0.875
vt 0.006249999999999999 0.8125
vt 0.171875 0.53125
vt 0.171875 0.609375
vt 0.15625 0.609375
vt 0.15625 0.53125
vt 0.46875 0.78515625
vt 0.53515625 0.78515625
vt 0.53515625 0.796875
vt 0.46875 0.796875
vt 0.06125625 0.484375
vt 0.0625 0.546875
vt 0.046959375 0.546875
vt 0.048203125 0.484375
vt 0.46750625 0.734375
vt 0.46875 0.796875
vt 0.453209375 0.796875
vt 0.454453125 0.734375
vt 0.59375 0.74609375
vt 0.59375 0.75
vt 0.46875 0.75
vt 0.46875 0.74609375
vt 0.59375 0.71484375
vt 0.59375 0.71875
vt 0.46875 0.71875
vt 0.46875 0.71484375
vt 0.3125 0.515625
vt 0.3125 0.640625
vt 0.296875 0.640625
vt 0.296875 0.515625
vt 0.328125 0.71875
vt 0.453125 0.71875
vt 0.453125 0.734375
vt 0.328125 0.734375
vt 0.046875 0.52734375
vt 0.046875 0.53125
vt 0.03125 0.53125
vt 0.03125 0.52734375
vt 0.453125 0.76171875
vt 0.453125 0.765625
vt 0.4375 0.765625
vt 0.4375 0.76171875
vt 0.0546875 0.46484375
vt 0.0546875 0.46875
vt 0.03125 0.46875
vt 0.03125 0.46484375
vt 0.5234375 0.48046875
vt 0.5234375 0.484375
vt 0.5 0.484375
vt 0.5 0.48046875
vt 0.29138246183901406 0.6328125
vt 0.29911459514419814 0.65625
vt 0.21252378816098594 0.65625
vt 0.2047916548558019 0.6328125
vt 0.34375 0.58984375
vt 0.3671875 0.5975758833051841
vt 0.3671875 0.6841666902883962
vt 0.34375 0.6764345569832122
vt 0.1484375 0.49609375
vt 0.1484375 0.5
vt 0.0625 0.5
vt 0.0625 0.49609375
vt 0.4296875 0.49609375
vt 0.4296875 0.5
vt 0.34375 0.5
vt 0.34375 0.49609375
vt 0.5390625 0.58984375
vt 0.5390625 0.59375
vt 0.515625 0.59375
vt 0.515625 0.58984375
vt 0.4921875 0.48046875
vt 0.4921875 0.484375
vt 0.46875 0.484375
vt 0.46875 0.48046875
vt 0.4375 0.8203125
vt 0.4375 0.84375
vt 0.359375 0.84375
vt 0.359375 0.8203125
vt 0.234375 0.546875
vt 0.2578125 0.546875
vt 0.2578125 0.625
vt 0.234375 0.625
vt 0.59375 0.96484375
vt 0.59375 0.96875
vt 0.515625 0.96875
vt 0.515625 0.96484375
vt 0.59375 0.94921875
vt 0.59375 0.953125
vt 0.515625 0.953125
vt 0.515625 0.94921875
vt 0.4296875 0.48046875
vt 0.4296875 0.484375
vt 0.40625 0.484375
vt 0.40625 0.48046875
vt 0.3984375 0.48046875
vt 0.3984375 0.484375
vt 0.375 0.484375
vt 0.375 0.48046875
vt 0.43973959514419814 0.7421875
vt 0.43200746183901406 0.765625
vt 0.3454166548558019 0.765625
vt 0.35314878816098594 0.7421875
vt 0.1875 0.5350758833051841
vt 0.2109375 0.52734375
vt 0.2109375 0.6139345569832122
vt 0.1875 0.6216666902883962
vt 0.5859375 0.57421875
vt 0.5859375 0.578125
vt 0.5 0.578125
vt 0.5 0.57421875
vt 0.5546875 0.49609375
vt 0.5546875 0.5
vt 0.46875 0.5
vt 0.46875 0.49609375
vt 0.57421875 0.51171875
vt 0.57421875 0.515625
vt 0.46875 0.515625
vt 0.46875 0.51171875
vt 0.60546875 0.99609375
vt 0.60546875 1
vt 0.5 1
vt 0.5 0.99609375
vt 0.16015625 0.614518249499013
vt 0.16015625 0.71875
vt 0.140625 0.7096640363288005
vt 0.140625 0.6054322858278135
vt 0.20505989291390675 0.66796875
vt 0.30929164341489374 0.66796875
vt 0.31837760708609325 0.6875
vt 0.21414585658510626 0.6875
vt 0.08203125 0.46484375
vt 0.08203125 0.46875
vt 0.0625 0.46875
vt 0.0625 0.46484375
vt 0.11328125 0.46484375
vt 0.11328125 0.46875
vt 0.09375 0.46875
vt 0.09375 0.46484375
vt 0.60546875 0.98046875
vt 0.60546875 0.984375
vt 0.484375 0.984375
vt 0.484375 0.98046875
vt 0.60546875 0.87109375
vt 0.60546875 0.875
vt 0.484375 0.875
vt 0.484375 0.87109375
vt 0.015625 0.5057067919890698
vt 0.015625 0.625
vt 0 0.6193866943521219
vt 0 0.5000934863411917
vt 0.35942174317059583 0.859375
vt 0.47871495118152607 0.859375
vt 0.48432825682940417 0.875
vt 0.36503504881847393 0.875
vt 0.21875 0.69921875
vt 0.21875 0.703125
vt 0.203125 0.703125
vt 0.203125 0.69921875
vt 0.34375 0.68359375
vt 0.34375 0.6875
vt 0.328125 0.6875
vt 0.328125 0.68359375
vt 0.58984375 0.52734375
vt 0.58984375 0.53125
vt 0.46875 0.53125
vt 0.46875 0.52734375
vt 0.58984375 0.54296875
vt 0.58984375 0.546875
vt 0.46875 0.546875
vt 0.46875 0.54296875
vt 0.234375 0.5000934863411917
vt 0.234375 0.6193866943521219
vt 0.21875 0.625
vt 0.21875 0.5057067919890699
vt 0.36503504881847393 0.84375
vt 0.48432825682940417 0.84375
vt 0.47871495118152607 0.859375
vt 0.35942174317059583 0.859375
vt 0.453125 0.79296875
vt 0.453125 0.796875
vt 0.4375 0.796875
vt 0.4375 0.79296875
vt 0.453125 0.77734375
vt 0.453125 0.78125
vt 0.4375 0.78125
vt 0.4375 0.77734375
vt 0.58984375 0.85546875
vt 0.58984375 0.859375
vt 0.484375 0.859375
vt 0.484375 0.85546875
vt 0.16796875 0.51171875
vt 0.16796875 0.515625
vt 0.0625 0.515625
vt 0.0625 0.51171875
vt 0.33203125 0.5585572858278135
vt 0.33203125 0.6627890363288005
vt 0.3125 0.671875
vt 0.3125 0.567643249499013
vt 0.32352085658510626 0.77734375
vt 0.42775260708609325 0.77734375
vt 0.41866664341489374 0.796875
vt 0.31443489291390675 0.796875
vt 0.17578125 0.46484375
vt 0.17578125 0.46875
vt 0.15625 0.46875
vt 0.15625 0.46484375
vt 0.14453125 0.46484375
vt 0.14453125 0.46875
vt 0.125 0.46875
vt 0.125 0.46484375
vt 0.578125 0.6796875
vt 0.578125 0.6875
vt 0.375 0.6875
vt 0.375 0.6796875
vt 0.5625 0.8046875
vt 0.5625 0.8125
vt 0.359375 0.8125
vt 0.359375 0.8046875
vt 0.109375 0.515625
vt 0.109375 0.71875
vt 0.09375 0.71875
vt 0.09375 0.515625
vt 0.3125 0.953125
vt 0.515625 0.953125
vt 0.515625 0.96875
vt 0.3125 0.96875
vt 0.09375 0.7109375
vt 0.09375 0.71875
vt 0.078125 0.71875
vt 0.078125 0.7109375
vt 0.171875 0.7421875
vt 0.171875 0.75
vt 0.15625 0.75
vt 0.15625 0.7421875
vt 0.2109375 0.4765625
vt 0.2109375 0.484375
vt 0.171875 0.484375
vt 0.171875 0.4765625
vt 0.1640625 0.4765625
vt 0.1640625 0.484375
vt 0.125 0.484375
vt 0.125 0.4765625
vt 0.03125 0.7266914384177643
vt 0 0.75
vt 0 0.6439241183124964
vt 0.03125 0.6206155567302607
vt 0.03296402836513038 0.75
vt 0.05627258994736608 0.71875
vt 0.16234847163486962 0.71875
vt 0.1390399100526339 0.75
vt 0.54296875 0.8359375
vt 0.54296875 0.84375
vt 0.4375 0.84375
vt 0.4375 0.8359375
vt 0.54296875 0.8203125
vt 0.54296875 0.828125
vt 0.4375 0.828125
vt 0.4375 0.8203125
vt 0.5546875 0.9296875
vt 0.5546875 0.9375
vt 0.515625 0.9375
vt 0.515625 0.9296875
vt 0.1171875 0.4765625
vt 0.1171875 0.484375
vt 0.078125 0.484375
vt 0.078125 0.4765625
vt 0.390625 0.8828125
vt 0.390625 0.921875
vt 0.3125 0.921875
vt 0.3125 0.8828125
vt 0.3125 0.796875
vt 0.3515625 0.796875
vt 0.3515625 0.875
vt 0.3125 0.875
vt 0.546875 0.7734375
vt 0.546875 0.78125
vt 0.46875 0.78125
vt 0.46875 0.7734375
vt 0.546875 0.7578125
vt 0.546875 0.765625
vt 0.46875 0.765625
vt 0.46875 0.7578125
vt 0.0703125 0.4765625
vt 0.0703125 0.484375
vt 0.03125 0.484375
vt 0.03125 0.4765625
vt 0.2265625 0.4921875
vt 0.2265625 0.5
vt 0.1875 0.5
vt 0.1875 0.4921875
vt 0.171875 0.6206155567302607
vt 0.203125 0.6439241183124964
vt 0.203125 0.75
vt 0.171875 0.7266914384177643
vt 0.31091491005263394 0.71875
vt 0.33422347163486965 0.75
vt 0.2281475899473661 0.75
vt 0.20483902836513038 0.71875
vt 0.55859375 0.5546875
vt 0.55859375 0.5625
vt 0.453125 0.5625
vt 0.453125 0.5546875
vt 0.55859375 0.7265625
vt 0.55859375 0.734375
vt 0.453125 0.734375
vt 0.453125 0.7265625
vt 0.51171875 0.5859375
vt 0.51171875 0.59375
vt 0.359375 0.59375
vt 0.359375 0.5859375
vt 0.49609375 0.5703125
vt 0.49609375 0.578125
vt 0.34375 0.578125
vt 0.34375 0.5703125
vt 0.05078125 0.5648615968469359
vt 0.05078125 0.71875
vt 0.03125 0.6960297257810757
vt 0.03125 0.5421413226280115
vt 0.31403941131400576 0.98046875
vt 0.4679278144670699 0.98046875
vt 0.49064808868599424 1
vt 0.3367596855329301 1
vt 0.34375 0.7578125
vt 0.34375 0.765625
vt 0.3125 0.765625
vt 0.3125 0.7578125
vt 0.09375 0.5234375
vt 0.09375 0.53125
vt 0.0625 0.53125
vt 0.0625 0.5234375
vt 0.56640625 0.6171875
vt 0.56640625 0.625
vt 0.375 0.625
vt 0.375 0.6171875
vt 0.56640625 0.6328125
vt 0.56640625 0.640625
vt 0.375 0.640625
vt 0.375 0.6328125
vt 0.125 0.5287207340012199
vt 0.125 0.71875
vt 0.109375 0.7057389167024273
vt 0.109375 0.5157096507036472
vt 0.3125423253518236 0.9375
vt 0.5025715913506037 0.9375
vt 0.5155826746481764 0.953125
vt 0.32555340864939625 0.953125
vt 0.23828125 0.4765625
vt 0.23828125 0.484375
vt 0.21875 0.484375
vt 0.21875 0.4765625
vt 0.26953125 0.4765625
vt 0.26953125 0.484375
vt 0.25 0.484375
vt 0.25 0.4765625
vt 0.56640625 0.6640625
vt 0.56640625 0.671875
vt 0.375 0.671875
vt 0.375 0.6640625
vt 0.56640625 0.6484375
vt 0.56640625 0.65625
vt 0.375 0.65625
vt 0.375 0.6484375
vt 0.140625 0.5157096507036472
vt 0.140625 0.7057389167024274
vt 0.125 0.71875
vt 0.125 0.5287207340012199
vt 0.32555340864939625 0.921875
vt 0.5155826746481764 0.921875
vt 0.5025715913506037 0.9375
vt 0.3125423253518236 0.9375
vt 0.30078125 0.4765625
vt 0.30078125 0.484375
vt 0.28125 0.484375
vt 0.28125 0.4765625
vt 0.36328125 0.4765625
vt 0.36328125 0.484375
vt 0.34375 0.484375
vt 0.34375 0.4765625
vt 0.52734375 0.6015625
vt 0.52734375 0.609375
vt 0.375 0.609375
vt 0.375 0.6015625
vt 0.54296875 0.6953125
vt 0.54296875 0.703125
vt 0.390625 0.703125
vt 0.390625 0.6953125
vt 0.08203125 0.5421413226280115
vt 0.08203125 0.6960297257810757
vt 0.0625 0.71875
vt 0.0625 0.5648615968469359
vt 0.22738468553293012 0.69921875
vt 0.38127308868599424 0.69921875
vt 0.3585528144670699 0.71875
vt 0.20466441131400576 0.71875
vt 0.21875 0.5078125
vt 0.21875 0.515625
vt 0.1875 0.515625
vt 0.1875 0.5078125
vt 0.171875 0.5234375
vt 0.171875 0.53125
vt 0.140625 0.53125
vt 0.140625 0.5234375
vn 0.7069669352732569 -0.019887304007254553 0.7069669352732572
vn -0.706966935273257 -0.019887304007254403 -0.706966935273257
vn 0 1 0
vn 0 -1 0
vn -0.7035975431638601 -0.09950374117369948 0.7035975431638584
vn 0.7035975431638588 -0.0995037411736992 -0.7035975431638597
vn 0.9192944920759063 -0.09950374117369935 -0.38078424643272646
vn -0.9192944920759061 -0.09950374117369919 0.3807842464327265
vn 0 1 0
vn 0 -1 0
vn 0.38260774830219596 -0.019887304007254476 0.9236968150201919
vn -0.3826077483021956 -0.019887304007254525 -0.923696815020192
vn 0.9950371879947191 -0.09950374117369898 0
vn -0.9950371879947189 -0.09950374117369937 -8.88602924813802e-16
vn 0 1 0
vn 0 -1 0
vn 0 -0.019887304007254164 0.9998022280127822
vn 0 -0.01988730400725394 -0.9998022280127822
vn 0.9192944920759059 -0.0995037411736996 0.38078424643272696
vn -0.9192944920759055 -0.09950374117369942 -0.38078424643272774
vn 0 1 0
vn 0 -1 0
vn -0.38260774830219574 -0.01988730400725434 0.923696815020192
vn 0.3826077482503332 -0.019887310820471047 -0.9236968148949847
vn 0.7069669351774275 -0.01988731082047134 -0.7069669351774277
vn -0.706966935273257 -0.019887304007254566 0.706966935273257
vn 0 1 0
vn 0 -1 0
vn 0.7035975431638593 -0.09950374117369919 0.7035975431638593
vn -0.7035975430693929 -0.09950374250964776 -0.7035975430693938
vn 0.923696815020192 -0.01988730400725421 -0.38260774830219574
vn -0.923696815020192 -0.019887304007254043 0.38260774830219574
vn 0 1 0
vn 0 -1 0
vn 0.38078424643272635 -0.09950374117369941 0.9192944920759061
vn -0.3807842463816018 -0.09950374250964766 -0.9192944919524806
vn 0.9998022280127822 -0.019887304007254164 0
vn -0.9998022280127822 -0.019887304007253942 0
vn 0 1 0
vn 0 -1 0
vn 0 -0.09950374117369898 0.9950371879947191
vn 0 -0.0995037411736994 -0.9950371879947189
vn 0.923696815020192 -0.019887304007254254 0.38260774830219574
vn -0.923696815020192 -0.019887304007253553 -0.3826077483021958
vn 0 1 0
vn 0 -1 0
vn -0.38078424643272696 -0.09950374117369945 0.9192944920759059
vn 0.3807842464327263 -0.09950374117369944 -0.9192944920759063
vn 1 0 -2.220446049250313e-16
vn -1 0 -2.2204460492503136e-16
vn 0 1 0
vn 0 -1 0
vn -1.786069778164946e-15 0 1
vn 0 0 -1
vn 0.9680852138050859 0 -0.25062126568182796
vn -0.9680852138050859 0 0.25062126568182763
vn 0 1 0
vn 0 -1 0
vn 0.5524331286185566 0 0.8335572196344492
vn -0.5524331286185563 0 -0.8335572196344494
vn 1 0 0
vn -1 0 -5.581468056765467e-16
vn 0 1 0
vn 0 -1 0
vn 0 0 1
vn 0 0 -1
vn 0.9680852138050859 0 0.25062126568182796
vn -0.9680852138050856 0 -0.25062126568182935
vn 0 1 0
vn 0 -1 0
vn -0.5524331286185563 0 0.8335572196344494
vn 0.5524331286185563 0 -0.8335572196344495
vn 0.847998304005088 0 -0.5299989400031803
vn -0.8479983040050881 0 0.5299989400031799
vn 0 1 0
vn 0 -1 0
vn 0.847998304005088 0 0.5299989400031799
vn -0.8479983040050882 0 -0.5299989400031796
vn 0.9680852138050859 0 -0.2506212656818276
vn -0.9680852138050859 0 0.25062126568182747
vn 0 1 0
vn 0 -1 0
vn 0.5524331286185569 0 0.8335572196344492
vn -0.5524331286185572 0 -0.8335572196344488
vn 0.968085213805086 0 0.25062126568182735
vn -0.9680852138050858 0 -0.2506212656818277
vn 0 1 0
vn 0 -1 0
vn -0.5524331286185564 0 0.8335572196344493
vn 0.5524331286185571 0 -0.8335572196344491
vn 0.847998304005088 0 0.5299989400031799
vn -0.8479983040050879 0 -0.52999894000318
vn 0 1 0
vn 0 -1 0
vn -0.8479983040050891 0 0.5299989400031785
vn 0.8479983040050872 0 -0.5299989400031813
vn 1 0 0
vn -1 0 -1.3664283380001927e-16
vn 0 1 0
vn 0 -1 0
vn -1.786069778164946e-15 0 1
vn 0 0 -1
vn 0.9875462658999978 0 -0.15732886800257234
vn -0.9875462658999979 0 0.1573288680025716
vn 0 1 0
vn 0 -1 0
vn 0.732803631607541 0 0.6804401792243012
vn -0.7328036316075413 0 -0.6804401792243012
vn 1 0 -6.869499146788266e-16
vn -1 0 6.869499146788265e-16
vn 0 1 0
vn 0 -1 0
vn 0 0 1
vn 1.7763568394002506e-16 0 -1
vn 0.9875462658999982 0 0.1573288680025709
vn -0.9875462658999982 0 -0.15732886800257107
vn 0 1 0
vn 0 -1 0
vn -0.7328036316075414 0 0.6804401792243011
vn 0.7328036316075411 0 -0.6804401792243013
vn 0.9333456062030596 0 -0.3589790793088694
vn -0.9333456062030596 0 0.3589790793088689
vn 0 1 0
vn 0 -1 0
vn 0.9333456062030595 0 0.3589790793088695
vn -0.9333456062030595 0 -0.3589790793088693
vn 0.9875462658999979 0 -0.15732886800257148
vn -0.9875462658999979 0 0.1573288680025715
vn 0 1 0
vn 0 -1 0
vn 0.7328036316075409 0 0.6804401792243014
vn -0.7328036316075413 0 -0.6804401792243011
vn 0.9875462658999979 0 0.15732886800257148
vn -0.987546265899998 0 -0.1573288680025716
vn 0 1 0
vn 0 -1 0
vn -0.7328036316075418 0 0.6804401792243004
vn 0.7328036316075416 0 -0.6804401792243008
vn 0.9333456062030596 0 0.3589790793088689
vn -0.9333456062030596 0 -0.35897907930886913
vn 0 1 0
vn 0 -1 0
vn -0.9333456062030598 0 0.3589790793088688
vn 0.9333456062030594 0 -0.3589790793088697
usemtl m_dbc49411-de0e-921d-87ed-54fd40b5da91
f 1/1/1 2/2/1 3/3/1 4/4/1
f 5/5/2 6/6/2 7/7/2 8/8/2
f 3/9/3 2/10/3 7/11/3 6/12/3
f 1/13/4 4/14/4 5/15/4 8/16/4
f 4/17/5 3/18/5 6/19/5 5/20/5
f 8/21/6 7/22/6 2/23/6 1/24/6
f 1/25/7 9/26/7 10/27/7 11/28/7
f 5/29/8 12/30/8 13/31/8 14/32/8
f 10/33/9 9/34/9 13/35/9 12/36/9
f 1/37/10 11/38/10 5/39/10 14/40/10
f 11/41/11 10/42/11 12/43/11 5/44/11
f 14/45/12 13/46/12 9/47/12 1/48/12
f 11/49/13 15/50/13 16/51/13 17/52/13
f 14/53/14 18/54/14 19/55/14 20/56/14
f 16/57/15 15/58/15 19/59/15 18/60/15
f 11/61/16 17/62/16 14/63/16 20/64/16
f 17/65/17 16/66/17 18/67/17 14/68/17
f 20/69/18 19/70/18 15/71/18 11/72/18
f 17/73/19 21/74/19 22/75/19 23/76/19
f 24/77/20 25/78/20 26/79/20 27/80/20
f 22/81/21 21/82/21 26/83/21 25/84/21
f 17/85/22 23/86/22 24/87/22 27/88/22
f 23/89/23 22/90/23 25/91/23 24/92/23
f 27/93/24 26/94/24 21/95/24 17/96/24
f 28/97/25 29/98/25 30/99/25 23/100/25
f 31/101/26 32/102/26 33/103/26 27/104/26
f 30/105/27 29/106/27 33/107/27 32/108/27
f 28/109/28 23/110/28 31/111/28 27/112/28
f 23/113/29 30/114/29 32/115/29 31/116/29
f 27/117/30 33/118/30 29/119/30 28/120/30
f 34/121/31 35/122/31 36/123/31 31/124/31
f 37/125/32 38/126/32 39/127/32 28/128/32
f 36/129/33 35/130/33 39/131/33 38/132/33
f 34/133/34 31/134/34 37/135/34 28/136/34
f 31/137/35 36/138/35 38/139/35 37/140/35
f 28/141/36 39/142/36 35/143/36 34/144/36
f 40/145/37 41/146/37 42/147/37 37/148/37
f 43/149/38 44/150/38 45/151/38 46/152/38
f 42/153/39 41/154/39 45/155/39 44/156/39
f 40/157/40 37/158/40 43/159/40 46/160/40
f 37/161/41 42/162/41 44/163/41 43/164/41
f 46/165/42 45/166/42 41/167/42 40/168/42
f 8/169/43 47/170/43 48/171/43 43/172/43
f 4/173/44 49/174/44 50/175/44 51/176/44
f 48/177/45 47/178/45 50/179/45 49/180/45
f 8/181/46 43/182/46 4/183/46 51/184/46
f 43/185/47 48/186/47 49/187/47 4/188/47
f 51/189/48 50/190/48 47/191/48 8/192/48
f 52/193/49 53/194/49 54/195/49 55/196/49
f 56/197/50 57/198/50 58/199/50 59/200/50
f 54/201/51 53/202/51 58/203/51 57/204/51
f 52/205/52 55/206/52 56/207/52 59/208/52
f 55/209/53 54/210/53 57/211/53 56/212/53
f 59/213/54 58/214/54 53/215/54 52/216/54
f 60/217/55 61/218/55 62/219/55 63/220/55
f 64/221/56 65/222/56 66/223/56 67/224/56
f 62/225/57 61/226/57 66/227/57 65/228/57
f 60/229/58 63/230/58 64/231/58 67/232/58
f 63/233/59 62/234/59 65/235/59 64/236/59
f 67/237/60 66/238/60 61/239/60 60/240/60
f 68/241/61 69/242/61 70/243/61 71/244/61
f 72/245/62 73/246/62 74/247/62 75/248/62
f 70/249/63 69/250/63 74/251/63 73/252/63
f 68/253/64 71/254/64 72/255/64 75/256/64
f 71/257/65 70/258/65 73/259/65 72/260/65
f 75/261/66 74/262/66 69/263/66 68/264/66
f 76/265/67 77/266/67 78/267/67 79/268/67
f 80/269/68 81/270/68 82/271/68 83/272/68
f 78/273/69 77/274/69 82/275/69 81/276/69
f 76/277/70 79/278/70 80/279/70 83/280/70
f 79/281/71 78/282/71 81/283/71 80/284/71
f 83/285/72 82/286/72 77/287/72 76/288/72
f 84/289/73 85/290/73 86/291/73 87/292/73
f 88/293/74 89/294/74 90/295/74 91/296/74
f 86/297/75 85/298/75 90/299/75 89/300/75
f 84/301/76 87/302/76 88/303/76 91/304/76
f 87/305/77 86/306/77 89/307/77 88/308/77
f 91/309/78 90/310/78 85/311/78 84/312/78
f 92/313/79 93/314/79 94/315/79 95/316/79
f 96/317/80 97/318/80 98/319/80 99/320/80
f 94/321/81 93/322/81 98/323/81 97/324/81
f 92/325/82 95/326/82 96/327/82 99/328/82
f 95/329/83 94/330/83 97/331/83 96/332/83
f 99/333/84 98/334/84 93/335/84 92/336/84
f 100/337/85 101/338/85 102/339/85 103/340/85
f 104/341/86 105/342/86 106/343/86 107/344/86
f 102/345/87 101/346/87 106/347/87 105/348/87
f 100/349/88 103/350/88 104/351/88 107/352/88
f 103/353/89 102/354/89 105/355/89 104/356/89
f 107/357/90 106/358/90 101/359/90 100/360/90
f 108/361/91 109/362/91 110/363/91 111/364/91
f 112/365/92 113/366/92 114/367/92 115/368/92
f 110/369/93 109/370/93 114/371/93 113/372/93
f 108/373/94 111/374/94 112/375/94 115/376/94
f 111/377/95 110/378/95 113/379/95 112/380/95
f 115/381/96 114/382/96 109/383/96 108/384/96
f 116/385/97 117/386/97 118/387/97 119/388/97
f 120/389/98 121/390/98 122/391/98 123/392/98
f 118/393/99 117/394/99 122/395/99 121/396/99
f 116/397/100 119/398/100 120/399/100 123/400/100
f 119/401/101 118/402/101 121/403/101 120/404/101
f 123/405/102 122/406/102 117/407/102 116/408/102
f 124/409/103 125/410/103 126/411/103 127/412/103
f 128/413/104 129/414/104 130/415/104 131/416/104
f 126/417/105 125/418/105 130/419/105 129/420/105
f 124/421/106 127/422/106 128/423/106 131/424/106
f 127/425/107 126/426/107 129/427/107 128/428/107
f 131/429/108 130/430/108 125/431/108 124/432/108
f 132/433/109 133/434/109 134/435/109 135/436/109
f 136/437/110 137/438/110 138/439/110 139/440/110
f 134/441/111 133/442/111 138/443/111 137/444/111
f 132/445/112 135/446/112 136/447/112 139/448/112
f 135/449/113 134/450/113 137/451/113 136/452/113
f 139/453/114 138/454/114 133/455/114 132/456/114
f 140/457/115 141/458/115 142/459/115 143/460/115
f 144/461/116 145/462/116 146/463/116 147/464/116
f 142/465/117 141/466/117 146/467/117 145/468/117
f 140/469/118 143/470/118 144/471/118 147/472/118
f 143/473/119 142/474/119 145/475/119 144/476/119
f 147/477/120 146/478/120 141/479/120 140/480/120
f 148/481/121 149/482/121 150/483/121 151/484/121
f 152/485/122 153/486/122 154/487/122 155/488/122
f 150/489/123 149/490/123 154/491/123 153/492/123
f 148/493/124 151/494/124 152/495/124 155/496/124
f 151/497/125 150/498/125 153/499/125 152/500/125
f 155/501/126 154/502/126 149/503/126 148/504/126
f 156/505/127 157/506/127 158/507/127 159/508/127
f 160/509/128 161/510/128 162/511/128 163/512/128
f 158/513/129 157/514/129 162/515/129 161/516/129
f 156/517/130 159/518/130 160/519/130 163/520/130
f 159/521/131 158/522/131 161/523/131 160/524/131
f 163/525/132 162/526/132 157/527/132 156/528/132
f 164/529/133 165/530/133 166/531/133 167/532/133
f 168/533/134 169/534/134 170/535/134 171/536/134
f 166/537/135 165/538/135 170/539/135 169/540/135
f 164/541/136 167/542/136 168/543/136 171/544/136
f 167/545/137 166/546/137 169/547/137 168/548/137
f 171/549/138 170/550/138 165/551/138 164/552/138
f 172/553/139 173/554/139 174/555/139 175/556/139
f 176/557/140 177/558/140 178/559/140 179/560/140
f 174/561/141 173/562/141 178/563/141 177/564/141
f 172/565/142 175/566/142 176/567/142 179/568/142
f 175/569/143 174/570/143 177/571/143 176/572/143
f 179/573/144 178/574/144 173/575/144 172/576/144