# Made in Blockbench 5.1.4
mtllib street_light_pole_blue_base.mtl

o hexadecagon
v 0.42919318783118476 1 0.6059698831278216
v 0.6059698831278216 1 0.42919318783118476
v 0.42919318783118476 0 0.6059698831278216
v 0.6059698831278216 0 0.42919318783118476
v 0.39403011687217826 1 0.5708068121688151
v 0.5708068121688152 1 0.3940301168721783
v 0.39403011687217826 0 0.5708068121688151
v 0.5708068121688152 0 0.3940301168721783
v 0.4751359540775427 1 0.625
v 0.5708068121688151 1 0.39403011687217837
v 0.4751359540775427 0 0.625
v 0.5708068121688151 0 0.39403011687217837
v 0.42919318783118476 1 0.6059698831278217
v 0.5248640459224572 1 0.375
v 0.42919318783118476 0 0.6059698831278217
v 0.5248640459224572 0 0.375
v 0.5248640459224573 1 0.625
v 0.5248640459224572 1 0.375
v 0.5248640459224573 0 0.625
v 0.5248640459224572 0 0.375
v 0.4751359540775428 1 0.625
v 0.4751359540775428 1 0.37500000000000006
v 0.4751359540775428 0 0.625
v 0.4751359540775428 0 0.37500000000000006
v 0.5708068121688151 1 0.6059698831278217
v 0.47513595407754267 1 0.375
v 0.5708068121688151 0 0.6059698831278217
v 0.47513595407754267 0 0.375
v 0.5248640459224573 1 0.625
v 0.42919318783118476 1 0.3940301168721783
v 0.5248640459224573 0 0.625
v 0.42919318783118476 0 0.3940301168721783
v 0.6059698831278216 1 0.5708068121688152
v 0.42919318783118476 1 0.39403011687217837
v 0.6059698831278216 0 0.5708068121688152
v 0.42919318783118476 0 0.39403011687217837
v 0.5708068121688152 1 0.6059698831278217
v 0.3940301168721783 1 0.4291931878311848
v 0.5708068121688152 0 0.6059698831278217
v 0.3940301168721783 0 0.4291931878311848
v 0.6059698831278217 1 0.5708068121688151
v 0.625 1 0.5248640459224573
v 0.6059698831278217 0 0.5708068121688151
v 0.625 0 0.5248640459224573
v 0.375 1 0.47513595407754267
v 0.39403011687217837 1 0.42919318783118476
v 0.375 0 0.47513595407754267
v 0.39403011687217837 0 0.42919318783118476
v 0.625 1 0.5248640459224573
v 0.625 1 0.4751359540775428
v 0.625 0 0.5248640459224573
v 0.625 0 0.4751359540775428
v 0.375 1 0.5248640459224572
v 0.37500000000000006 1 0.4751359540775428
v 0.375 0 0.5248640459224572
v 0.37500000000000006 0 0.4751359540775428
v 0.625 1 0.4751359540775428
v 0.6059698831278217 1 0.42919318783118476
v 0.625 0 0.4751359540775428
v 0.6059698831278217 0 0.42919318783118476
v 0.3940301168721783 1 0.5708068121688151
v 0.375 1 0.5248640459224572
v 0.3940301168721783 0 0.5708068121688151
v 0.375 0 0.5248640459224572
vt 0.0625 0.75
vt 0.0625 1
vt 0 1
vt 0 0.75
vt 0.140625 0.75
vt 0.140625 1
vt 0.078125 1
vt 0.078125 0.75
vt 0.58984375 0.9375
vt 0.58984375 1
vt 0.578125 1
vt 0.578125 0.9375
vt 0.58984375 0.859375
vt 0.58984375 0.921875
vt 0.578125 0.921875
vt 0.578125 0.859375
vt 0.16796875 0.21875
vt 0.16796875 0.46875
vt 0.15625 0.46875
vt 0.15625 0.21875
vt 0.19921875 0.21875
vt 0.19921875 0.46875
vt 0.1875 0.46875
vt 0.1875 0.21875
vt 0.0625 0.484375
vt 0.0625 0.734375
vt 0 0.734375
vt 0 0.484375
vt 0.140625 0.484375
vt 0.140625 0.734375
vt 0.078125 0.734375
vt 0.078125 0.484375
vt 0.58984375 0.78125
vt 0.58984375 0.84375
vt 0.578125 0.84375
vt 0.578125 0.78125
vt 0.578125 0.75390625
vt 0.640625 0.75390625
vt 0.640625 0.765625
vt 0.578125 0.765625
vt 0.41796875 0.21875
vt 0.41796875 0.46875
vt 0.40625 0.46875
vt 0.40625 0.21875
vt 0.44921875 0.21875
vt 0.44921875 0.46875
vt 0.4375 0.46875
vt 0.4375 0.21875
vt 0.0625 0.21875
vt 0.0625 0.46875
vt 0 0.46875
vt 0 0.21875
vt 0.53125 0.75
vt 0.53125 1
vt 0.46875 1
vt 0.46875 0.75
vt 0.58984375 0.671875
vt 0.58984375 0.734375
vt 0.578125 0.734375
vt 0.578125 0.671875
vt 0.578125 0.64453125
vt 0.640625 0.64453125
vt 0.640625 0.65625
vt 0.578125 0.65625
vt 0.55859375 0.484375
vt 0.55859375 0.734375
vt 0.546875 0.734375
vt 0.546875 0.484375
vt 0.54296875 0.21875
vt 0.54296875 0.46875
vt 0.53125 0.46875
vt 0.53125 0.21875
vt 0.375 0.75
vt 0.375 1
vt 0.3125 1
vt 0.3125 0.75
vt 0.375 0.484375
vt 0.375 0.734375
vt 0.3125 0.734375
vt 0.3125 0.484375
vt 0.58984375 0.5625
vt 0.58984375 0.625
vt 0.578125 0.625
vt 0.578125 0.5625
vt 0.578125 0.53515625
vt 0.640625 0.53515625
vt 0.640625 0.546875
vt 0.578125 0.546875
vt 0.29296875 0.21875
vt 0.29296875 0.46875
vt 0.28125 0.46875
vt 0.28125 0.21875
vt 0.32421875 0.21875
vt 0.32421875 0.46875
vt 0.3125 0.46875
vt 0.3125 0.21875
vt 0.21875 0.75
vt 0.21875 1
vt 0.15625 1
vt 0.15625 0.75
vt 0.296875 0.75
vt 0.296875 1
vt 0.234375 1
vt 0.234375 0.75
vt 0.640625 0.515625
vt 0.578125 0.515625
vt 0.578125 0.50390625
vt 0.640625 0.50390625
vt 0.59375 0.47265625
vt 0.65625 0.47265625
vt 0.65625 0.484375
vt 0.59375 0.484375
vt 0.26171875 0.21875
vt 0.26171875 0.46875
vt 0.25 0.46875
vt 0.25 0.21875
vt 0.23046875 0.21875
vt 0.23046875 0.46875
vt 0.21875 0.46875
vt 0.21875 0.21875
vt 0.35546875 0.21875
vt 0.35546875 0.46875
vt 0.34375 0.46875
vt 0.34375 0.21875
vt 0.38671875 0.21875
vt 0.38671875 0.46875
vt 0.375 0.46875
vt 0.375 0.21875
vt 0.65625 0.44140625
vt 0.65625 0.453125
vt 0.59375 0.453125
vt 0.59375 0.44140625
vt 0.59375 0.359375
vt 0.60546875 0.359375
vt 0.60546875 0.421875
vt 0.59375 0.421875
vt 0.453125 0.75
vt 0.453125 1
vt 0.390625 1
vt 0.390625 0.75
vt 0.453125 0.484375
vt 0.453125 0.734375
vt 0.390625 0.734375
vt 0.390625 0.484375
vt 0.57421875 0.21875
vt 0.57421875 0.46875
vt 0.5625 0.46875
vt 0.5625 0.21875
vt 0.55859375 0.75
vt 0.55859375 1
vt 0.546875 1
vt 0.546875 0.75
vt 0.671875 0.98828125
vt 0.671875 1
vt 0.609375 1
vt 0.609375 0.98828125
vt 0.609375 0.90625
vt 0.62109375 0.90625
vt 0.62109375 0.96875
vt 0.609375 0.96875
vt 0.140625 0.21875
vt 0.140625 0.46875
vt 0.078125 0.46875
vt 0.078125 0.21875
vt 0.53125 0.484375
vt 0.53125 0.734375
vt 0.46875 0.734375
vt 0.46875 0.484375
vt 0.48046875 0.21875
vt 0.48046875 0.46875
vt 0.46875 0.46875
vt 0.46875 0.21875
vt 0.51171875 0.21875
vt 0.51171875 0.46875
vt 0.5 0.46875
vt 0.5 0.21875
vt 0.671875 0.87890625
vt 0.671875 0.890625
vt 0.609375 0.890625
vt 0.609375 0.87890625
vt 0.609375 0.796875
vt 0.62109375 0.796875
vt 0.62109375 0.859375
vt 0.609375 0.859375
vt 0.21875 0.484375
vt 0.21875 0.734375
vt 0.15625 0.734375
vt 0.15625 0.484375
vt 0.296875 0.484375
vt 0.296875 0.734375
vt 0.234375 0.734375
vt 0.234375 0.484375
vn 0.7071067811865475 0 0.7071067811865476
vn -0.7071067811865475 0 -0.7071067811865476
vn 0 1 0
vn 0 -1 0
vn -0.7071067811865476 0 0.7071067811865475
vn 0.7071067811865476 0 -0.7071067811865475
vn 0.923879532511287 0 0.3826834323650896
vn -0.923879532511287 0 -0.3826834323650896
vn 0 1 0
vn 0 -1 0
vn -0.38268343236508984 0 0.9238795325112867
vn 0.38268343236508984 0 -0.9238795325112867
vn 1 0 -2.220446049250313e-16
vn -1 0 -1.1102230246251565e-16
vn 0 1 0
vn 0 -1 0
vn -8.326672684688674e-16 0 1
vn -7.216449660063519e-16 0 -1
vn 0.923879532511287 0 -0.3826834323650898
vn -0.923879532511287 0 0.3826834323650898
vn 0 1 0
vn 0 -1 0
vn 0.38268343236509034 0 0.9238795325112865
vn -0.38268343236509034 0 -0.9238795325112865
vn 0.7071067811865476 0 -0.7071067811865475
vn -0.7071067811865475 0 0.7071067811865476
vn 0 1 0
vn 0 -1 0
vn 0.707106781186549 0 0.707106781186546
vn -0.7071067811865475 0 -0.7071067811865476
vn 0.9238795325112865 0 0.38268343236509034
vn -0.9238795325112865 0 -0.38268343236509034
vn 0 1 0
vn 0 -1 0
vn -0.38268343236508984 0 0.9238795325112867
vn 0.38268343236508984 0 -0.9238795325112867
vn 1 0 -7.216449660063519e-16
vn -1 0 -8.326672684688674e-16
vn 0 1 0
vn 0 -1 0
vn -3.885780586188048e-16 0 1
vn 1.1102230246251565e-16 0 -1
vn 0.923879532511287 0 -0.3826834323650898
vn -0.923879532511287 0 0.3826834323650898
vn 0 1 0
vn 0 -1 0
vn 0.38268343236508945 0 0.923879532511287
vn -0.38268343236508945 0 -0.923879532511287
usemtl m_750cd770-83fb-9494-d68b-8b4269424c1a
f 4/1/1 2/2/1 1/3/1 3/4/1
f 7/5/2 5/6/2 6/7/2 8/8/2
f 1/9/3 2/10/3 6/11/3 5/12/3
f 4/13/4 3/14/4 7/15/4 8/16/4
f 3/17/5 1/18/5 5/19/5 7/20/5
f 8/21/6 6/22/6 2/23/6 4/24/6
f 12/25/7 10/26/7 9/27/7 11/28/7
f 15/29/8 13/30/8 14/31/8 16/32/8
f 9/33/9 10/34/9 14/35/9 13/36/9
f 12/37/10 11/38/10 15/39/10 16/40/10
f 11/41/11 9/42/11 13/43/11 15/44/11
f 16/45/12 14/46/12 10/47/12 12/48/12
f 20/49/13 18/50/13 17/51/13 19/52/13
f 23/53/14 21/54/14 22/55/14 24/56/14
f 17/57/15 18/58/15 22/59/15 21/60/15
f 20/61/16 19/62/16 23/63/16 24/64/16
f 19/65/17 17/66/17 21/67/17 23/68/17
f 24/69/18 22/70/18 18/71/18 20/72/18
f 28/73/19 26/74/19 25/75/19 27/76/19
f 31/77/20 29/78/20 30/79/20 32/80/20
f 25/81/21 26/82/21 30/83/21 29/84/21
f 28/85/22 27/86/22 31/87/22 32/88/22
f 27/89/23 25/90/23 29/91/23 31/92/23
f 32/93/24 30/94/24 26/95/24 28/96/24
f 36/97/25 34/98/25 33/99/25 35/100/25
f 39/101/26 37/102/26 38/103/26 40/104/26
f 33/105/27 34/106/27 38/107/27 37/108/27
f 36/109/28 35/110/28 39/111/28 40/112/28
f 35/113/29 33/114/29 37/115/29 39/116/29
f 40/117/30 38/118/30 34/119/30 36/120/30
f 44/121/31 42/122/31 41/123/31 43/124/31
f 47/125/32 45/126/32 46/127/32 48/128/32
f 41/129/33 42/130/33 46/131/33 45/132/33
f 44/133/34 43/134/34 47/135/34 48/136/34
f 43/137/35 41/138/35 45/139/35 47/140/35
f 48/141/36 46/142/36 42/143/36 44/144/36
f 52/145/37 50/146/37 49/147/37 51/148/37
f 55/149/38 53/150/38 54/151/38 56/152/38
f 49/153/39 50/154/39 54/155/39 53/156/39
f 52/157/40 51/158/40 55/159/40 56/160/40
f 51/161/41 49/162/41 53/163/41 55/164/41
f 56/165/42 54/166/42 50/167/42 52/168/42
f 60/169/43 58/170/43 57/171/43 59/172/43
f 63/173/44 61/174/44 62/175/44 64/176/44
f 57/177/45 58/178/45 62/179/45 61/180/45
f 60/181/46 59/182/46 63/183/46 64/184/46
f 59/185/47 57/186/47 61/187/47 63/188/47
f 64/189/48 62/190/48 58/191/48 60/192/48