# Made in Blockbench 5.1.4
mtllib street_light_block_a_off.mtl

o cube
v 1.2080578780485842 0.5302305953309969 0.40625
v 0.7549039845302593 0.7415397262013466 0.40625
v 0.7549039845302593 0.7415397262013466 0.59375
v 1.2080578780485842 0.5302305953309969 0.59375
v 1.1816442366897906 0.4735863586412063 0.59375
v 0.7284903431714655 0.684895489511556 0.59375
v 0.7284903431714655 0.684895489511556 0.40625
v 1.1816442366897906 0.4735863586412063 0.40625
v 0.7549039845302592 0.7415397262013466 0.40625
v 0.011320338499901439 0.839434370366385 0.40625
v 0.011320338499901439 0.839434370366385 0.59375
v 0.7549039845302592 0.7415397262013466 0.59375
v 0.7467460975165061 0.6795744223654833 0.59375
v 0.0031624514861483544 0.7774690665305218 0.59375
v 0.0031624514861483544 0.7774690665305218 0.40625
v 0.7467460975165061 0.6795744223654833 0.40625
v 1.3848345733452212 0.35345390003436017 0.40625
v 1.2080578780485842 0.5302305953309969 0.40625
v 1.2080578780485842 0.5302305953309969 0.59375
v 1.3848345733452212 0.35345390003436017 0.59375
v 1.340640399521062 0.3092597262102009 0.59375
v 1.163863704224425 0.48603642150683773 0.59375
v 1.163863704224425 0.48603642150683773 0.40625
v 1.340640399521062 0.3092597262102009 0.40625
v 1.4703396091766385 0.11853074483788295 0.40625
v 1.3848345733452212 0.35345390003436017 0.40625
v 1.3848345733452212 0.35345390003436017 0.59375
v 1.4703396091766385 0.11853074483788295 0.59375
v 1.411608820377519 0.09715448588002873 0.59375
v 1.3261037845461021 0.33207764107650584 0.59375
v 1.3261037845461021 0.33207764107650584 0.40625
v 1.411608820377519 0.09715448588002873 0.40625
v 1.4810497090775447 0.9393240448964788 0.4374999999999999
v 1.4596734501196906 0.9980548336955981 0.4374999999999999
v 1.4596734501196906 0.9980548336955981 0.5624999999999999
v 1.4810497090775447 0.9393240448964788 0.5624999999999999
v 0.7762802434881135 0.6828089374022273 0.5624999999999999
v 0.7549039845302593 0.7415397262013466 0.5624999999999999
v 0.7549039845302593 0.7415397262013466 0.4374999999999999
v 0.7762802434881135 0.6828089374022273 0.4374999999999999
v 0.023820338499901172 0.858184370366385 0.34375
v -0.40993678835114156 0.9152895794626575 0.34375
v -0.40993678835114156 0.9152895794626575 0.65625
v 0.023820338499901172 0.858184370366385 0.65625
v 0.007504564472395003 0.7342537626946587 0.65625
v -0.4262525623786475 0.7913589717909315 0.65625
v -0.4262525623786475 0.7913589717909315 0.34375
v 0.007504564472395003 0.7342537626946587 0.34375
v -0.02902129528776487 0.7356100360441151 0.375
v -0.38842005753577125 0.7829257807238839 0.375
v -0.38842005753577125 0.7829257807238839 0.625
v -0.02902129528776487 0.7356100360441151 0.625
v -0.030244978339827533 0.7263152404687357 0.625
v -0.3896437405878339 0.7736309851485044 0.625
v -0.3896437405878339 0.7736309851485044 0.375
v -0.030244978339827533 0.7263152404687357 0.375
vt 0.53125 0.75
vt 0.53125 1
vt 0.4375 1
vt 0.4375 0.75
vt 0.53125 0.46875
vt 0.53125 0.71875
vt 0.4375 0.71875
vt 0.4375 0.46875
vt 0.90625 0.78125
vt 0.8125 0.78125
vt 0.8125 0.75
vt 0.90625 0.75
vt 0.09375 0.1875
vt 0 0.1875
vt 0 0.15625
vt 0.09375 0.15625
vt 0.34375 0
vt 0.34375 0.25
vt 0.3125 0.25
vt 0.3125 0
vt 0.71875 0.8125
vt 0.96875 0.8125
vt 0.96875 0.84375
vt 0.71875 0.84375
vt 0.09375 0.625
vt 0.09375 1
vt 0 1
vt 0 0.625
vt 0.21875 0.625
vt 0.21875 1
vt 0.125 1
vt 0.125 0.625
vt 0.84375 0.34375
vt 0.75 0.34375
vt 0.75 0.3125
vt 0.84375 0.3125
vt 0.78125 0.25
vt 0.6875 0.25
vt 0.6875 0.21875
vt 0.78125 0.21875
vt 0.59375 0.3125
vt 0.59375 0.6875
vt 0.5625 0.6875
vt 0.5625 0.3125
vt 0.625 0.65625
vt 1 0.65625
vt 1 0.6875
vt 0.625 0.6875
vt 0.28125 0.15625
vt 0.28125 0.28125
vt 0.1875 0.28125
vt 0.1875 0.15625
vt 0.8125 0.875
vt 0.8125 1
vt 0.71875 1
vt 0.71875 0.875
vt 0.90625 0.21875
vt 0.8125 0.21875
vt 0.8125 0.1875
vt 0.90625 0.1875
vt 0.9375 1
vt 0.84375 1
vt 0.84375 0.96875
vt 0.9375 0.96875
vt 0.53125 0.3125
vt 0.53125 0.4375
vt 0.5 0.4375
vt 0.5 0.3125
vt 0.75 0.4375
vt 0.875 0.4375
vt 0.875 0.46875
vt 0.75 0.46875
vt 0.71875 0.4375
vt 0.71875 0.5625
vt 0.625 0.5625
vt 0.625 0.4375
vt 0.71875 0.28125
vt 0.71875 0.40625
vt 0.625 0.40625
vt 0.625 0.28125
vt 0.90625 0.28125
vt 0.8125 0.28125
vt 0.8125 0.25
vt 0.90625 0.25
vt 0.78125 0.1875
vt 0.6875 0.1875
vt 0.6875 0.15625
vt 0.78125 0.15625
vt 0.40625 0.125
vt 0.40625 0.25
vt 0.375 0.25
vt 0.375 0.125
vt 0.75 0.375
vt 0.875 0.375
vt 0.875 0.40625
vt 0.75 0.40625
vt 0.90625 0.90625
vt 0.90625 0.9375
vt 0.84375 0.9375
vt 0.84375 0.90625
vt 0.5625 0.125
vt 0.5625 0.15625
vt 0.5 0.15625
vt 0.5 0.125
vt 0.0625 0.59375
vt 0 0.59375
vt 0 0.21875
vt 0.0625 0.21875
vt 0.15625 0.59375
vt 0.09375 0.59375
vt 0.09375 0.21875
vt 0.15625 0.21875
vt 1 0.59375
vt 1 0.625
vt 0.625 0.625
vt 0.625 0.59375
vt 0.4375 0.0625
vt 0.46875 0.0625
vt 0.46875 0.4375
vt 0.4375 0.4375
vt 0.40625 0.78125
vt 0.40625 1
vt 0.25 1
vt 0.25 0.78125
vt 0.40625 0.53125
vt 0.40625 0.75
vt 0.25 0.75
vt 0.25 0.53125
vt 0.90625 0.5625
vt 0.75 0.5625
vt 0.75 0.5
vt 0.90625 0.5
vt 0.65625 0.25
vt 0.5 0.25
vt 0.5 0.1875
vt 0.65625 0.1875
vt 0.40625 0.28125
vt 0.40625 0.5
vt 0.34375 0.5
vt 0.34375 0.28125
vt 0.5625 0.71875
vt 0.78125 0.71875
vt 0.78125 0.78125
vt 0.5625 0.78125
vt 0.6875 0.8203125
vt 0.6875 1
vt 0.5625 1
vt 0.5625 0.8203125
vt 0.3125 0.3203125
vt 0.3125 0.5
vt 0.1875 0.5
vt 0.1875 0.3203125
vt 0.71875 0.125
vt 0.59375 0.125
vt 0.59375 0.1171875
vt 0.71875 0.1171875
vt 1 0.34375
vt 0.875 0.34375
vt 0.875 0.3359375
vt 1 0.3359375
vt 0.1328125 0.0078125
vt 0.1328125 0.1875
vt 0.125 0.1875
vt 0.125 0.0078125
vt 0.8125 0.1484375
vt 0.9921875 0.1484375
vt 0.9921875 0.15625
vt 0.8125 0.15625
vn 0.4226182617406993 0.90630778703665 0
vn -0.4226182617406995 -0.9063077870366502 0
vn -0.90630778703665 0.4226182617406997 0
vn 0.90630778703665 -0.4226182617406993 0
vn 0 0 1
vn 0 0 -1
vn 0.1305261922200513 0.9914448613738106 0
vn -0.13052619222005146 -0.9914448613738106 0
vn -0.9914448613738108 0.13052619222004933 0
vn 0.9914448613738106 -0.13052619222004996 0
vn 0 0 1
vn 0 0 -1
vn 0.7071067811865471 0.707106781186548 0
vn -0.7071067811865475 -0.7071067811865477 0
vn -0.7071067811865478 0.7071067811865474 0
vn 0.7071067811865476 -0.7071067811865476 0
vn 0 0 1
vn 0 0 -1
vn 0.9396926207859085 0.3420201433256683 0
vn -0.9396926207859085 -0.34202014332566827 0
vn -0.3420201433256691 0.9396926207859083 0
vn 0.3420201433256673 -0.9396926207859091 0
vn 0 0 1
vn 0 0 -1
vn 0.9396926207859089 0.34202014332566755 0
vn -0.9396926207859086 -0.3420201433256684 0
vn -0.3420201433256687 0.9396926207859084 0
vn 0.34202014332566877 -0.9396926207859084 0
vn 0 0 1
vn 0 0 -1
vn 0.13052619222005146 0.9914448613738105 0
vn -0.13052619222005202 -0.9914448613738105 0
vn -0.9914448613738109 0.13052619222004794 0
vn 0.9914448613738107 -0.13052619222004944 0
vn 0 0 1
vn 0 0 -1
vn 0.13052619222005166 0.9914448613738104 0
vn -0.13052619222005138 -0.9914448613738106 0
vn -0.9914448613738149 0.13052619222001774 0
vn 0.9914448613738148 -0.1305261922200193 0
vn 0 0 1
vn 0 0 -1
usemtl m_f7ba8b0f-989d-bb84-23d3-c5dacbd7ed1b
f 1/1/1 2/2/1 3/3/1 4/4/1
f 5/5/2 6/6/2 7/7/2 8/8/2
f 3/9/3 2/10/3 7/11/3 6/12/3
f 1/13/4 4/14/4 5/15/4 8/16/4
f 4/17/5 3/18/5 6/19/5 5/20/5
f 8/21/6 7/22/6 2/23/6 1/24/6
f 9/25/7 10/26/7 11/27/7 12/28/7
f 13/29/8 14/30/8 15/31/8 16/32/8
f 11/33/9 10/34/9 15/35/9 14/36/9
f 9/37/10 12/38/10 13/39/10 16/40/10
f 12/41/11 11/42/11 14/43/11 13/44/11
f 16/45/12 15/46/12 10/47/12 9/48/12
f 17/49/13 18/50/13 19/51/13 20/52/13
f 21/53/14 22/54/14 23/55/14 24/56/14
f 19/57/15 18/58/15 23/59/15 22/60/15
f 17/61/16 20/62/16 21/63/16 24/64/16
f 20/65/17 19/66/17 22/67/17 21/68/17
f 24/69/18 23/70/18 18/71/18 17/72/18
f 25/73/19 26/74/19 27/75/19 28/76/19
f 29/77/20 30/78/20 31/79/20 32/80/20
f 27/81/21 26/82/21 31/83/21 30/84/21
f 25/85/22 28/86/22 29/87/22 32/88/22
f 28/89/23 27/90/23 30/91/23 29/92/23
f 32/93/24 31/94/24 26/95/24 25/96/24
f 33/97/25 34/98/25 35/99/25 36/100/25
f 37/101/26 38/102/26 39/103/26 40/104/26
f 35/105/27 34/106/27 39/107/27 38/108/27
f 33/109/28 36/110/28 37/111/28 40/112/28
f 36/113/29 35/114/29 38/115/29 37/116/29
f 40/117/30 39/118/30 34/119/30 33/120/30
f 41/121/31 42/122/31 43/123/31 44/124/31
f 45/125/32 46/126/32 47/127/32 48/128/32
f 43/129/33 42/130/33 47/131/33 46/132/33
f 41/133/34 44/134/34 45/135/34 48/136/34
f 44/137/35 43/138/35 46/139/35 45/140/35
f 48/141/36 47/142/36 42/143/36 41/144/36
f 49/145/37 50/146/37 51/147/37 52/148/37
f 53/149/38 54/150/38 55/151/38 56/152/38
f 51/153/39 50/154/39 55/155/39 54/156/39
f 49/157/40 52/158/40 53/159/40 56/160/40
f 52/161/41 51/162/41 54/163/41 53/164/41
f 56/165/42 55/166/42 50/167/42 49/168/42