# Made in Blockbench 5.1.4
mtllib road_fence_side.mtl

o cube
v 0.4531250000000001 0.3125 -0.0031249999999999334
v 0.4531250000000001 0.40625 -0.0031249999999999334
v 0.5468750000000001 0.40625 -0.0031249999999999334
v 0.5468750000000001 0.3125 -0.0031249999999999334
v 0.546875 0.3125 0.4468750000000001
v 0.546875 0.40625 0.4468750000000001
v 0.453125 0.40625 0.4468750000000001
v 0.453125 0.3125 0.4468750000000001
v 0.4531250000000001 1.0625 -0.0031249999999999334
v 0.4531250000000001 1.15625 -0.0031249999999999334
v 0.5468750000000001 1.15625 -0.0031249999999999334
v 0.5468750000000001 1.0625 -0.0031249999999999334
v 0.546875 1.0625 0.4468750000000001
v 0.546875 1.15625 0.4468750000000001
v 0.453125 1.15625 0.4468750000000001
v 0.453125 1.0625 0.4468750000000001
v 0.45625000000000016 0.40624999995343375 0.06562499999999993
v 0.45625000000000016 1.0624999999534337 0.06562499999999993
v 0.5437500000000001 1.0624999999534337 0.06562499999999993
v 0.5437500000000001 0.40624999995343375 0.06562499999999993
v 0.5437500000000001 0.40624999995343375 0.15312499999999996
v 0.5437500000000001 1.0624999999534337 0.15312499999999996
v 0.4562500000000001 1.0624999999534337 0.15312499999999996
v 0.4562500000000001 0.40624999995343375 0.15312499999999996
v 0.4562500000000001 0.40624999995343375 0.3031250119209292
v 0.4562500000000001 1.0624999999534337 0.3031250119209292
v 0.54375 1.0624999999534337 0.3031250119209292
v 0.54375 0.40624999995343375 0.3031250119209292
v 0.54375 0.40624999995343375 0.39062501192092913
v 0.54375 1.0624999999534337 0.39062501192092913
v 0.45625000000000004 1.0624999999534337 0.39062501192092913
v 0.45625000000000004 0.40624999995343375 0.39062501192092913
vt 0.609375 0.484375
vt 0.609375 0.53125
vt 0.5625 0.53125
vt 0.5625 0.484375
vt 0.609375 0.390625
vt 0.609375 0.4375
vt 0.5625 0.4375
vt 0.5625 0.390625
vt 0.5078125 0.578125
vt 0.5078125 0.625
vt 0.28125 0.625
vt 0.28125 0.578125
vt 0.6953125 0.953125
vt 0.6953125 1
vt 0.46875 1
vt 0.46875 0.953125
vt 0.6953125 0.859375
vt 0.6953125 0.90625
vt 0.46875 0.90625
vt 0.46875 0.859375
vt 0.6953125 0.765625
vt 0.6953125 0.8125
vt 0.46875 0.8125
vt 0.46875 0.765625
vt 0.328125 0.296875
vt 0.328125 0.34375
vt 0.28125 0.34375
vt 0.28125 0.296875
vt 0.421875 0.296875
vt 0.421875 0.34375
vt 0.375 0.34375
vt 0.375 0.296875
vt 0.5078125 0.484375
vt 0.5078125 0.53125
vt 0.28125 0.53125
vt 0.28125 0.484375
vt 0.6953125 0.671875
vt 0.6953125 0.71875
vt 0.46875 0.71875
vt 0.46875 0.671875
vt 0.5078125 0.390625
vt 0.5078125 0.4375
vt 0.28125 0.4375
vt 0.28125 0.390625
vt 0.7890625 0.578125
vt 0.7890625 0.625
vt 0.5625 0.625
vt 0.5625 0.578125
vt 0.046875 0.671875
vt 0.046875 1
vt 0 1
vt 0 0.671875
vt 0.140625 0.671875
vt 0.140625 1
vt 0.09375 1
vt 0.09375 0.671875
vt 0.515625 0.296875
vt 0.515625 0.34375
vt 0.46875 0.34375
vt 0.46875 0.296875
vt 0.703125 0.484375
vt 0.703125 0.53125
vt 0.65625 0.53125
vt 0.65625 0.484375
vt 0.234375 0.671875
vt 0.234375 1
vt 0.1875 1
vt 0.1875 0.671875
vt 0.328125 0.671875
vt 0.328125 1
vt 0.28125 1
vt 0.28125 0.671875
vt 0.046875 0.296875
vt 0.046875 0.625
vt 0 0.625
vt 0 0.296875
vt 0.421875 0.671875
vt 0.421875 1
vt 0.375 1
vt 0.375 0.671875
vt 0.609375 0.296875
vt 0.609375 0.34375
vt 0.5625 0.34375
vt 0.5625 0.296875
vt 0.703125 0.390625
vt 0.703125 0.4375
vt 0.65625 0.4375
vt 0.65625 0.390625
vt 0.140625 0.296875
vt 0.140625 0.625
vt 0.09375 0.625
vt 0.09375 0.296875
vt 0.234375 0.296875
vt 0.234375 0.625
vt 0.1875 0.625
vt 0.1875 0.296875
vn 2.220446049250313e-16 0 -1
vn -2.220446049250313e-16 0 1
vn 0 1 0
vn 0 -1 0
vn 1 0 2.220446049250313e-16
vn -1 0 -2.220446049250313e-16
vn 2.220446049250313e-16 0 -1
vn -2.220446049250313e-16 0 1
vn 0 1 0
vn 0 -1 0
vn 1 0 2.220446049250313e-16
vn -1 0 -2.220446049250313e-16
vn 2.220446049250313e-16 0 -1
vn -2.220446049250313e-16 0 1
vn 0 1 0
vn 0 -1 0
vn 1 0 2.220446049250313e-16
vn -1 0 -2.220446049250313e-16
vn 2.220446049250313e-16 0 -1
vn -2.220446049250313e-16 0 1
vn 0 1 0
vn 0 -1 0
vn 1 0 2.220446049250313e-16
vn -1 0 -2.220446049250313e-16
usemtl m_64e27e8c-d5f0-7c66-3da9-cec8ce91fa51
f 1/1/1 2/2/1 3/3/1 4/4/1
f 5/5/2 6/6/2 7/7/2 8/8/2
f 3/9/3 2/10/3 7/11/3 6/12/3
f 1/13/4 4/14/4 5/15/4 8/16/4
f 4/17/5 3/18/5 6/19/5 5/20/5
f 8/21/6 7/22/6 2/23/6 1/24/6
f 9/25/7 10/26/7 11/27/7 12/28/7
f 13/29/8 14/30/8 15/31/8 16/32/8
f 11/33/9 10/34/9 15/35/9 14/36/9
f 9/37/10 12/38/10 13/39/10 16/40/10
f 12/41/11 11/42/11 14/43/11 13/44/11
f 16/45/12 15/46/12 10/47/12 9/48/12
f 17/49/13 18/50/13 19/51/13 20/52/13
f 21/53/14 22/54/14 23/55/14 24/56/14
f 19/57/15 18/58/15 23/59/15 22/60/15
f 17/61/16 20/62/16 21/63/16 24/64/16
f 20/65/17 19/66/17 22/67/17 21/68/17
f 24/69/18 23/70/18 18/71/18 17/72/18
f 25/73/19 26/74/19 27/75/19 28/76/19
f 29/77/20 30/78/20 31/79/20 32/80/20
f 27/81/21 26/82/21 31/83/21 30/84/21
f 25/85/22 28/86/22 29/87/22 32/88/22
f 28/89/23 27/90/23 30/91/23 29/92/23
f 32/93/24 31/94/24 26/95/24 25/96/24